<svg xmlns:xlink="http://www.w3.org/1999/xlink" xmlns="http://www.w3.org/2000/svg" id="KqifQYuFa" viewBox="0 0 370.18518518518516 74.3941812551246" height="74.3941812551246" width="370.18518518518516" style="width: 370.185px; height: 74.3942px; position: absolute; top: 50%; left: 50%; z-index: 0; cursor: pointer; transform: translate(-50%, -50%) scale(0.547834);"><defs id="SvgjsDefs1001"></defs><g id="SvgjsG1007" featurekey="symbolFeature-0" transform="matrix(0.07755452828264227,0,0,0.07755452828264227,-0.020771421168229345,0.019388632070660567)" fill="#000000"><defs xmlns="http://www.w3.org/2000/svg"></defs><g xmlns="http://www.w3.org/2000/svg"><path class="fil0" d="M239 17c0,-23 34,-23 34,0l0 309 0 17 -17 0c-30,0 -59,7 -80,19 -13,7 -24,17 -31,27 -7,11 -11,23 -11,36 0,15 4,31 14,50l0 0c7,10 12,21 16,32 3,11 5,22 6,34l0 0c3,35 -24,60 -55,91 -30,30 -66,64 -77,114l0 0c-15,65 17,112 71,142 47,25 109,37 172,37 63,-1 126,-14 174,-40 19,-10 35,-23 48,-37l42 0c-17,27 -42,49 -74,67 -52,28 -121,43 -189,44 -69,0 -137,-14 -189,-42 -67,-36 -107,-95 -88,-179l0 0c14,-59 53,-97 86,-130 26,-25 47,-45 45,-65l0 -1c0,-8 -2,-16 -4,-24 -3,-8 -7,-17 -12,-26l-1 0c-13,-24 -19,-46 -19,-67 0,-20 6,-39 17,-55 10,-15 25,-28 42,-37 23,-13 50,-21 80,-23l0 -293zm597 520l0 16c-48,15 -92,34 -143,44 -11,-3 -22,-6 -33,-10 64,-6 117,-31 176,-50zm0 53l0 16c-38,12 -75,27 -115,38l-6 -14c42,-10 80,-27 121,-40zm0 53l0 16c-31,10 -62,22 -94,32l-4 -10 -2 -4c34,-10 67,-23 100,-34zm0 53l0 16c-24,8 -48,17 -73,25l-6 -13c27,-9 53,-19 79,-28zm-574 -36l0 -16c10,-3 20,-6 29,-9 1,5 2,10 3,14 -10,3 -20,7 -32,11zm0 -53l0 -15c30,-11 54,-17 76,-18 -14,4 -25,11 -33,20 -13,3 -27,7 -43,13zm0 -53l0 -15c30,-11 55,-17 77,-18l9 14c-24,0 -51,6 -86,19zm0 -53l0 -15c18,-7 34,-11 49,-14l7 13c-16,3 -35,8 -56,16zm105 83c10,0 20,2 29,6l-91 -156c-4,-7 6,-13 10,-6l12 19c96,-20 80,36 139,46 11,7 -14,16 -43,2 -32,-15 -45,-21 -75,-12l73 126c23,40 -15,69 -54,69 -82,0 -82,-94 0,-94zm345 161c10,0 20,2 28,5l-31 -67 -136 -42 38 85c14,31 -22,52 -49,52 -69,0 -69,-77 0,-77 10,0 19,2 27,6l-59 -132 0 0 -5 -12 13 4c50,15 102,30 153,44l1 3c23,52 47,105 70,157 11,31 -23,50 -50,50 -69,0 -69,-76 0,-76zm-275 -89c24,18 43,38 69,55 -3,4 -6,8 -7,12 -27,-16 -46,-37 -71,-55 4,-4 6,-8 9,-12zm191 92c12,0 23,-1 36,-2 -6,5 -10,10 -13,16 -10,0 -19,1 -29,0 3,-4 5,-9 6,-14zm-168 -232c14,13 28,24 44,35l8 18 2 5c-32,-18 -52,-38 -79,-60 8,2 17,3 25,2zm-70 10c59,18 90,69 145,95l9 20c-64,-25 -92,-72 -142,-95l-12 -20zm44 75c46,33 69,65 130,84l0 2c0,0 -1,0 -2,0 -10,0 -19,1 -26,3 -39,-16 -62,-38 -93,-64 -1,-8 -4,-16 -9,-25l0 0zm178 93c24,2 47,0 72,-4l15 5 3 6c-29,6 -56,9 -83,8l-7 -15zm-174 -284c20,-47 24,-64 18,-67 -4,-2 -25,9 -46,20 -25,13 -50,26 -70,24 -21,-1 -33,-14 -31,-47l0 -112c0,-22 34,-22 34,0l0 112 0 1c-1,9 0,13 0,13 10,1 31,-10 52,-21 28,-15 57,-30 76,-20 18,8 22,35 0,97l-33 0z" style="fill: #000000; fill-rule: nonzero;"></path></g></g><g id="SvgjsG1008" featurekey="nameFeature-0" transform="matrix(1.105026348508933,0,0,1.105026348508933,81.95012913286538,9.109954175192332)" fill="#000000"><path d="M9.04 11.440000000000001 l0 23.28 l13.92 0 l0 5.28 l-20.2 0 l0 -28.56 l6.28 0 z M31.56 19.32 l0 11.72 c0 1.6 0.25332 2.84 0.76 3.72 s1.4667 1.32 2.88 1.32 c1.5733 0 2.7 -0.46668 3.38 -1.4 s1.02 -2.4266 1.02 -4.48 l0 -10.88 l5.68 0 l0 20.68 l-5.4 0 l0 -2.88 l-0.12 0 c-1.4133 2.2933 -3.5333 3.44 -6.36 3.44 c-2.6933 0 -4.62 -0.68668 -5.78 -2.06 s-1.74 -3.4866 -1.74 -6.34 l0 -12.84 l5.68 0 z M61.519999999999996 18.76 c3.0133 0 5.0268 1.1466 6.04 3.44 c1.5733 -2.2933 3.6666 -3.44 6.28 -3.44 c2.5867 0 4.4868 0.65332 5.7 1.96 s1.82 3.1067 1.82 5.4 l0 13.88 l-5.68 0 l0 -11.96 c0 -1.8133 -0.27332 -3.0666 -0.82 -3.76 s-1.4334 -1.04 -2.66 -1.04 c-2.5333 0 -3.8 1.7333 -3.8 5.2 l0 11.56 l-5.68 0 l0 -12.2 c0 -1.76 -0.28 -2.96 -0.84 -3.6 s-1.4267 -0.96 -2.6 -0.96 c-1.0933 0 -2.0066 0.43332 -2.74 1.3 s-1.1 2.0067 -1.1 3.42 l0 12.04 l-5.68 0 l0 -20.68 l5.36 0 l0 2.8 l0.08 0 c1.5733 -2.24 3.68 -3.36 6.32 -3.36 z M91.68 11.440000000000001 l0 4.68 l-5.68 0 l0 -4.68 l5.68 0 z M91.68 19.32 l0 20.68 l-5.68 0 l0 -20.68 l5.68 0 z M108.03999999999999 18.76 c2.64 0 4.5532 0.66676 5.74 2.0001 s1.78 3.4533 1.78 6.36 l0 12.88 l-5.68 0 l0 -11.72 c0 -1.7067 -0.27332 -2.9734 -0.82 -3.8 s-1.4867 -1.24 -2.82 -1.24 c-1.5467 0 -2.6667 0.46668 -3.36 1.4 s-1.04 2.4666 -1.04 4.6 l0 10.76 l-5.68 0 l0 -20.68 l5.4 0 l0 2.88 l0.12 0 c1.4133 -2.2933 3.5333 -3.44 6.36 -3.44 z M129.4 18.76 c6.0268 0.02668 9.04 1.9866 9.04 5.88 l0 10.96 c0 2.0267 0.24 3.4934 0.72 4.4 l-5.76 0 c-0.21332 -0.64 -0.34664 -1.3067 -0.39996 -2 c-1.68 1.7067 -4 2.56 -6.96 2.56 c-2.16 0 -3.8733 -0.54668 -5.14 -1.64 s-1.9 -2.6133 -1.9 -4.56 c0 -1.8933 0.6 -3.36 1.8 -4.4 c1.2267 -1.0933 3.4534 -1.7866 6.68 -2.08 c2.2933 -0.24 3.7466 -0.54 4.36 -0.9 s0.92 -0.91332 0.92 -1.66 c0 -0.93332 -0.28 -1.6266 -0.84 -2.08 s-1.4933 -0.68 -2.8 -0.68 c-1.2 0 -2.1067 0.24668 -2.72 0.74 s-0.97332 1.2866 -1.08 2.38 l-5.68 0 c0.13332 -2.2667 1.0666 -3.9867 2.8 -5.16 s4.0532 -1.76 6.96 -1.76 z M124.67999999999999 34.12 c0 1.76 1.16 2.64 3.48 2.64 c3.04 -0.02668 4.5732 -1.5867 4.6 -4.68 l0 -2.2 c-0.45332 0.45332 -1.6 0.78664 -3.44 0.99996 c-1.6 0.18668 -2.7733 0.51336 -3.52 0.98004 s-1.12 1.22 -1.12 2.26 z M153.28 10.760000000000002 c3.4933 0 6.2732 0.80004 8.34 2.4 s3.1 3.8667 3.1 6.8 l-6.08 0 c-0.08 -1.44 -0.56668 -2.52 -1.46 -3.24 s-2.2733 -1.08 -4.14 -1.08 c-1.3067 0 -2.36 0.28668 -3.16 0.86 s-1.2 1.3666 -1.2 2.38 c0 0.82668 0.24668 1.4267 0.74 1.8 s1.1933 0.70664 2.1 0.99996 s2.4934 0.72 4.76 1.28 c2.3733 0.58668 4.2 1.2267 5.48 1.92 s2.2533 1.58 2.92 2.66 s1 2.4067 1 3.98 c0 1.8133 -0.48 3.4266 -1.44 4.84 s-2.36 2.4866 -4.2 3.22 s-3.92 1.1 -6.24 1.1 c-3.5467 0 -6.46 -0.88668 -8.74 -2.66 s-3.42 -4.2068 -3.42 -7.3 l0 -0.2 l6.08 0 c0 1.68 0.57332 2.98 1.72 3.9 s2.6667 1.38 4.56 1.38 c1.68 0 3.0333 -0.3 4.06 -0.9 s1.54 -1.4867 1.54 -2.66 c0 -0.77332 -0.28 -1.4266 -0.84 -1.96 s-1.3067 -0.96664 -2.24 -1.3 s-2.5066 -0.75332 -4.72 -1.26 c-2.56 -0.64 -4.4268 -1.32 -5.6 -2.04 s-2.0666 -1.5933 -2.68 -2.62 s-0.92 -2.26 -0.92 -3.7 c0 -1.7867 0.51332 -3.3467 1.54 -4.68 s2.3667 -2.32 4.02 -2.96 s3.36 -0.96 5.12 -0.96 z M178.84 18.76 c3.3067 0 5.92 1.0067 7.84 3.02 s2.88 4.6468 2.88 7.9 c0 3.28 -0.98 5.9132 -2.94 7.9 s-4.5532 2.98 -7.78 2.98 c-3.28 0 -5.88 -1.0067 -7.8 -3.02 s-2.88 -4.6332 -2.88 -7.86 c0 -3.3333 0.98 -5.9868 2.94 -7.96 s4.54 -2.96 7.74 -2.96 z M173.84 29.68 c0 2.1067 0.42668 3.7333 1.28 4.88 s2.0933 1.72 3.72 1.72 c1.68 0 2.94 -0.58668 3.78 -1.76 s1.26 -2.7866 1.26 -4.84 c0 -2.1333 -0.43332 -3.7733 -1.3 -4.92 s-2.1267 -1.72 -3.78 -1.72 c-1.6 0 -2.8267 0.57332 -3.68 1.72 s-1.28 2.7867 -1.28 4.92 z M198.92000000000002 19.32 l0 11.72 c0 1.6 0.25332 2.84 0.76 3.72 s1.4667 1.32 2.88 1.32 c1.5733 0 2.7 -0.46668 3.38 -1.4 s1.02 -2.4266 1.02 -4.48 l0 -10.88 l5.68 0 l0 20.68 l-5.4 0 l0 -2.88 l-0.12 0 c-1.4133 2.2933 -3.5333 3.44 -6.36 3.44 c-2.6933 0 -4.62 -0.68668 -5.78 -2.06 s-1.74 -3.4866 -1.74 -6.34 l0 -12.84 l5.68 0 z M228.84 18.76 c2.64 0 4.5532 0.66676 5.74 2.0001 s1.78 3.4533 1.78 6.36 l0 12.88 l-5.68 0 l0 -11.72 c0 -1.7067 -0.27332 -2.9734 -0.82 -3.8 s-1.4867 -1.24 -2.82 -1.24 c-1.5467 0 -2.6667 0.46668 -3.36 1.4 s-1.04 2.4666 -1.04 4.6 l0 10.76 l-5.68 0 l0 -20.68 l5.4 0 l0 2.88 l0.12 0 c1.4133 -2.2933 3.5333 -3.44 6.36 -3.44 z M260.84000000000003 11.440000000000001 l0 28.56 l-5.4 0 l0 -2.64 l-0.08 0 c-1.2267 2.1333 -3.32 3.2 -6.28 3.2 c-2.8533 0 -5.1132 -1.04 -6.78 -3.12 s-2.5 -4.7332 -2.5 -7.96 c0 -3.1467 0.84668 -5.72 2.54 -7.72 s3.9 -3 6.62 -3 c1.2533 0 2.4333 0.26 3.54 0.78 s1.9667 1.2867 2.58 2.3 l0.08 0 l0 -10.4 l5.68 0 z M245.48000000000002 29.64 c0 1.8933 0.44664 3.4733 1.34 4.74 s2.1133 1.9 3.66 1.9 c1.6267 0 2.8467 -0.59332 3.66 -1.78 s1.22 -2.82 1.22 -4.9 s-0.42668 -3.6933 -1.28 -4.84 s-2.0666 -1.72 -3.64 -1.72 c-1.6267 0 -2.86 0.6 -3.7 1.8 s-1.26 2.8 -1.26 4.8 z"></path></g></svg>