<svg xmlns:xlink="http://www.w3.org/1999/xlink" xmlns="http://www.w3.org/2000/svg" id="7HN9gvN3n" viewBox="0 0 370.18518518518516 82.67620403482299" height="82.67620403482299" width="370.18518518518516" style="width: 370.185px; height: 82.6762px; position: absolute; top: 50%; left: 50%; z-index: 0; cursor: pointer; transform: translate(-50%, -50%) scale(0.547834);"><defs id="SvgjsDefs1083"><linearGradient id="SvgjsLinearGradient1088"><stop id="SvgjsStop1089" stop-color="#2d388a" offset="0"></stop><stop id="SvgjsStop1090" stop-color="#00aeef" offset="1"></stop></linearGradient><linearGradient id="SvgjsLinearGradient1088"><stop id="SvgjsStop1089" stop-color="#2d388a" offset="0"></stop><stop id="SvgjsStop1090" stop-color="#00aeef" offset="1"></stop></linearGradient><linearGradient id="SvgjsLinearGradient1088"><stop id="SvgjsStop1089" stop-color="#2d388a" offset="0"></stop><stop id="SvgjsStop1090" stop-color="#00aeef" offset="1"></stop></linearGradient></defs><g id="SvgjsG1084" featurekey="symbolFeature-0" transform="matrix(1.0560458625631741,0,0,1.0560458625631741,-20.02051765584043,-9.023417478378535)" fill="url(&quot;#SvgjsLinearGradient1088&quot;)"><path xmlns="http://www.w3.org/2000/svg" d="M80.333,11.708c0-0.449-0.105-0.871-0.282-1.253c-0.006-0.015-0.007-0.031-0.014-0.046c-0.627-1.533-2.378-2.268-3.913-1.64  L34.197,25.932c-0.004,0.001-0.007,0.004-0.011,0.006c-0.149,0.062-0.289,0.142-0.425,0.226c-0.033,0.021-0.072,0.035-0.104,0.057  c-0.056,0.038-0.103,0.087-0.156,0.128c-0.202,0.156-0.379,0.334-0.532,0.532c-0.041,0.053-0.088,0.099-0.125,0.154  c-0.056,0.083-0.096,0.175-0.143,0.263c-0.045,0.083-0.097,0.162-0.134,0.25c-0.075,0.178-0.132,0.363-0.172,0.553  c-0.005,0.026-0.004,0.054-0.009,0.081c-0.03,0.169-0.051,0.341-0.052,0.515c0,0.004-0.001,0.008-0.001,0.012v10.585  c0,0.004,0,0.009,0,0.014v28.965c-1.146-0.479-2.402-0.746-3.722-0.746c-5.332,0-9.653,4.322-9.653,9.653  c0,5.332,4.322,9.653,9.653,9.653c5.318,0,9.631-4.302,9.651-9.615c0.044-0.205,0.07-0.417,0.07-0.635V41.347l36-14.736v35.095  c-1.161-0.494-2.437-0.769-3.778-0.769c-5.331,0-9.653,4.322-9.653,9.653s4.322,9.653,9.653,9.653c5.332,0,9.653-4.322,9.653-9.653  c0-0.082-0.01-0.16-0.012-0.241c0.081-0.271,0.137-0.553,0.137-0.85V11.708z M38.333,34.863v-4.142l36-14.736v4.142L38.333,34.863z" fill="url(&quot;#SvgjsLinearGradient1088&quot;)"></path></g><g id="SvgjsG1085" featurekey="nameFeature-0" transform="matrix(1.1782086978065336,0,0,1.1782086978065336,83.25625208794773,11.605243959734127)" fill="#111111"><path d="M10.84 24.04 l0 3.44 c0 0.68 0 9.32 0.12 10.92 l2.28 0 c1.88 0 3.68 0 5.84 -0.2 s4.88 -5 5.48 -6.48 c0.12 -0.24 0.24 -0.36 0.48 -0.24 l0.8 0.32 c0.12 0.08 0.12 0.12 0.08 0.36 c-0.12 0.28 -1.72 6.88 -1.96 7.96 c-1.04 -0.08 -12.56 -0.12 -16.24 -0.12 c-3.96 0 -5.4 0.12 -5.92 0.12 c-0.28 0 -0.32 -0.08 -0.32 -0.36 l0 -1 c0 -0.2 0.04 -0.28 0.28 -0.28 l1.24 0 c1.48 0 1.72 -0.56 1.72 -1 c0 -0.76 0.12 -10.72 0.12 -13.16 l0 -2.24 c0 -2.56 -0.08 -6.8 -0.12 -7.44 c-0.08 -1.04 -0.28 -1.44 -1.2 -1.44 l-1.48 0 c-0.24 0 -0.28 -0.2 -0.28 -0.4 l0 -0.96 c0 -0.2 0.04 -0.28 0.28 -0.28 c0.44 0 1.88 0.12 5.52 0.12 c4.68 0 6.36 -0.12 6.72 -0.12 c0.32 0 0.36 0.12 0.36 0.4 l0 0.92 c0 0.2 -0.08 0.32 -0.4 0.32 l-1.88 0 c-1.24 0 -1.4 0.4 -1.4 1.48 c0 0.52 -0.12 6.56 -0.12 9.36 z M47.84 39 l-5.6 1.4 c-0.24 0.08 -0.52 0.16 -0.88 0.16 c-0.4 0 -0.64 -0.2 -0.68 -0.48 l-0.24 -2.16 l-0.24 0 c-0.8 1.4 -3.12 2.64 -5.28 2.64 c-1.6 0 -2.8 0 -4.2 -1.84 c-1.68 -2.24 -1.52 -3.52 -1.52 -6.96 l0.04 -1.76 c0 -1.52 0 -3.12 -0.04 -4 c-0.04 -0.96 -0.88 -1.32 -1.36 -1.4 c-0.68 -0.12 -0.88 -0.08 -0.88 -0.28 l0 -0.8 c0 -0.24 0.08 -0.32 0.44 -0.32 l5.84 0 c0.24 0 0.4 -0.04 0.56 -0.08 c0.16 0 0.32 -0.04 0.44 -0.04 c0.28 0 0.48 0.2 0.44 0.48 c-0.04 0.36 -0.16 2.24 -0.16 5.4 l0 2.16 c0 1.6 -0.24 4.6 0.76 6.16 c0.6 0.92 1.24 0.84 1.96 0.84 c0.68 0 1.56 -0.52 2.16 -1.28 c0.36 -0.4 0.64 -1.04 0.64 -1.44 l-0.04 -9.4 c0 -1 -0.72 -1.32 -1.72 -1.4 c-0.48 -0.04 -0.68 -0.08 -0.68 -0.28 l0 -0.76 c0 -0.32 0.08 -0.36 0.48 -0.36 l5.96 0 c0.28 0 0.48 -0.04 0.68 -0.08 c0.2 0 0.36 -0.04 0.48 -0.04 c0.24 0 0.4 0.2 0.36 0.4 c-0.04 0.36 -0.24 1.4 -0.24 5.44 l0 2.96 c0 1.92 0 3.88 0.08 4.6 c0.12 1.24 0.56 1.4 0.72 1.4 c0.24 0 0.84 0 1.32 -0.12 c0.32 -0.08 0.44 0 0.48 0.16 l0.12 0.76 c0.04 0.2 -0.04 0.28 -0.2 0.32 z M49.519999999999996 25.2 l5.16 -2.28 c0.36 -0.16 0.64 -0.28 0.92 -0.28 c0.24 0 0.48 0.12 0.56 0.52 l0.32 2.28 l0.2 0 c1.12 -1.56 3.16 -2.8 5.68 -2.8 c2.56 0 3.8 1.16 4.84 2.8 l0.2 0 c1.36 -1.6 3.32 -2.68 5.36 -2.68 c1.8 0 2.64 0.24 3.88 1.52 c1.16 1.16 1.72 1.52 1.72 5.48 l0 2.88 c0 1.36 -0.12 3.56 -0.16 4.4 c-0.04 1.12 0.52 1.56 1.16 1.56 l0.8 0 c0.36 0 0.44 0.08 0.44 0.36 l0 0.76 c0 0.28 -0.08 0.4 -0.28 0.4 c-0.28 0 -1.4 -0.12 -4.32 -0.12 c-2.4 0 -3.84 0.12 -4.12 0.12 c-0.24 0 -0.32 -0.12 -0.32 -0.48 l0 -0.68 c0 -0.28 0.12 -0.36 0.24 -0.36 l0.36 0 c0.28 0 0.76 -0.2 0.8 -0.76 c0.08 -0.92 0.2 -2.36 0.2 -3.84 l0 -3.84 c0 -2.48 -0.12 -3.32 -0.64 -3.88 c-0.64 -0.72 -1.04 -0.96 -1.96 -0.96 c-1.12 0 -1.92 0.84 -2.4 1.28 c-0.6 0.68 -0.6 1.96 -0.6 2.52 l0 7.92 c0 1.16 0.24 1.56 0.68 1.56 l0.72 0 c0.36 0 0.44 0.08 0.44 0.36 l0 0.72 c0 0.32 -0.08 0.44 -0.28 0.44 c-0.28 0 -1.32 -0.12 -3.76 -0.12 c-2.96 0 -4.32 0.12 -4.56 0.12 c-0.2 0 -0.28 -0.12 -0.28 -0.4 l0 -0.72 c0 -0.32 0.04 -0.4 0.4 -0.4 l0.56 0 c0.56 0 0.96 -0.52 0.96 -2.84 l0 -5.92 c0 -2.76 -0.4 -3.68 -0.88 -4.12 c-0.36 -0.36 -1 -0.48 -1.88 -0.48 c-0.8 0 -1.72 0.56 -2.2 1.24 c-0.52 0.8 -0.68 1.72 -0.64 3.24 l0 6.44 c0 2.04 0.4 2.44 0.84 2.44 l0.36 0 c0.36 0 0.4 0.08 0.4 0.36 l0 0.72 c0 0.28 -0.04 0.44 -0.32 0.44 c-0.36 0 -1.44 -0.12 -4.28 -0.12 c-2.68 0 -3.96 0.12 -4.28 0.12 c-0.24 0 -0.32 -0.08 -0.32 -0.36 l0 -0.8 c0 -0.32 0.04 -0.36 0.48 -0.36 l1.12 0 c0.4 0 0.72 -0.44 0.76 -1 c0.04 -0.68 0.04 -1.68 0.04 -2.72 l0 -5.04 c0 -1.76 -0.28 -2.4 -1.28 -3 l-0.8 -0.48 c-0.2 -0.12 -0.28 -0.2 -0.28 -0.32 l0 -0.48 c0 -0.12 0.08 -0.28 0.24 -0.36 z M89.67999999999999 16.76 c0 1.28 -0.88 2.68 -3.04 2.72 c-1.6 0.04 -2.8 -1.04 -2.8 -2.6 c0 -1.28 1.32 -2.44 3 -2.44 c1.88 0 2.84 1.2 2.84 2.32 z M92.47999999999999 39.72 c0 0.28 -0.08 0.4 -0.36 0.4 c-0.32 0 -2.16 -0.12 -5.64 -0.12 c-2.32 0 -3.88 0.12 -4.32 0.12 c-0.2 0 -0.32 -0.08 -0.32 -0.4 l0 -0.8 c0 -0.24 0.12 -0.32 0.4 -0.32 l1.48 0 c0.44 0 0.72 -0.16 0.76 -0.8 c0.08 -1.2 0.08 -2.44 0.08 -3.56 l-0.08 -5.6 c0 -1.12 -0.24 -1.92 -1.92 -2.52 c-0.44 -0.16 -0.48 -0.32 -0.48 -0.56 l0 -0.44 c0 -0.12 0.08 -0.2 0.44 -0.32 l5.96 -1.92 c0.44 -0.16 0.8 -0.24 1.08 -0.24 c0.32 0 0.44 0.2 0.4 0.48 c-0.08 0.68 -0.08 3.2 -0.08 6.72 l0 4.28 c0 1.56 0 3 0.04 3.44 c0.08 0.76 0.28 1.04 0.72 1.04 l1.44 0 c0.32 0 0.4 0.12 0.4 0.36 l0 0.76 z M100.87999999999998 23.12 l0.44 1.72 l0.32 0 c0.44 -0.52 1.16 -1.04 1.92 -1.44 c0.88 -0.48 1.76 -0.76 3.08 -0.76 c1.56 0 3.08 0.16 4.12 1.12 c1.68 1.56 1.8 2.56 1.8 4.56 l0 4.24 c0 1.36 -0.08 3.24 -0.16 4.64 c-0.04 1.2 0.6 1.4 0.96 1.4 l1.08 0 c0.36 0 0.44 0.12 0.44 0.36 l0 0.72 c0 0.28 -0.08 0.44 -0.32 0.44 c-0.28 0 -1.52 -0.12 -4.72 -0.12 c-2.64 0 -3.92 0.12 -4.2 0.12 c-0.24 0 -0.32 -0.12 -0.32 -0.44 l0 -0.72 c0 -0.28 0.12 -0.36 0.52 -0.36 l0.44 0 c0.28 0 0.64 -0.2 0.72 -0.92 c0.16 -1.04 0.24 -2.32 0.24 -4.16 l0 -4.28 c0 -1.52 -0.12 -2.56 -0.96 -3.32 c-0.72 -0.64 -1.28 -0.72 -1.96 -0.72 c-0.72 0 -1.24 0.2 -2.04 0.8 c-0.48 0.36 -0.8 1.44 -0.8 3.08 l-0.08 8.2 c0 0.72 0.28 1.32 0.64 1.32 l0.52 0 c0.32 0 0.4 0.12 0.4 0.4 l0 0.76 c0 0.24 -0.08 0.36 -0.28 0.36 c-0.28 0 -1.36 -0.12 -4 -0.12 c-2.84 0 -4.12 0.12 -4.36 0.12 c-0.2 0 -0.28 -0.12 -0.28 -0.36 l0 -0.8 c0 -0.24 0.08 -0.36 0.4 -0.36 l0.6 0 c0.44 0 1.12 -0.12 1.12 -0.8 l0 -8.88 c0 -1.2 -0.68 -1.88 -1.6 -2.32 l-0.36 -0.16 c-0.24 -0.12 -0.28 -0.28 -0.28 -0.44 l0 -0.36 c0 -0.2 0.16 -0.32 0.36 -0.4 l5.12 -2.32 c0.32 -0.12 0.6 -0.28 0.92 -0.28 c0.24 0 0.48 0.2 0.56 0.48 z M125.67999999999998 29.36 l0 -2.12 c0 -0.8 -0.08 -1.72 -0.6 -2.2 c-0.4 -0.36 -1.04 -0.48 -1.68 -0.48 c-0.72 0 -1.4 0.16 -2.12 0.64 c-0.6 0.4 -0.12 1.08 -0.12 2.36 c0 1.36 -1 2.28 -2.6 2.28 c-0.92 0 -1.72 -0.56 -1.72 -1.44 s0.28 -2.08 1.12 -2.8 c1.68 -1.52 4.44 -2.96 7.68 -2.96 c2.56 0 3.24 0.4 4.08 1.16 c0.88 0.8 1.12 1.96 1.12 3.4 l0.08 7.96 c0.04 2.08 0.16 2.72 0.92 2.72 c0.56 0 1 -0.44 1.16 -0.72 c0.16 -0.24 0.28 -0.28 0.4 -0.2 l0.56 0.32 c0.16 0.08 0.28 0.2 0.12 0.56 c-0.36 0.84 -1.56 2.72 -4.04 2.72 c-1.56 0 -3.04 -0.56 -3.8 -2.44 l-0.2 0 c-1 0.92 -1.84 1.48 -3.44 2.08 c-0.8 0.28 -1.72 0.36 -2.88 0.36 c-1.4 0 -2.64 -1.52 -2.64 -3.68 c0 -1.76 0.84 -3.6 3.44 -4.88 c3.12 -1.48 4.12 -1.92 5.16 -2.64 z M125.71999999999998 36.64 l0 -5.68 c-1.96 1.12 -3.6 1.72 -3.6 4.48 c0 1.84 0.84 2.6 1.72 2.64 c1.08 -0.08 1.88 -1.08 1.88 -1.44 z M136.92 31.08 l1.04 0.08 c0.16 0 0.28 0.04 0.28 0.32 c0.08 1.24 0.64 2.96 1.6 4.52 c1.16 1.84 3.12 2.72 5.04 2.72 s5 -1.28 5 -4.44 c0 -3.32 -0.64 -4.28 -5.84 -6.24 c-1.2 -0.44 -3.76 -1.72 -5.8 -3.48 c-1.4 -1.24 -2 -3.36 -2 -5.68 c0 -2.44 0.6 -4.08 3 -5.88 c1.8 -1.36 3.32 -1.92 5.76 -1.92 c2.92 0 4.48 0.48 5.32 0.8 c0.4 0.16 0.68 0.08 0.92 -0.2 l0.52 -0.52 c0.16 -0.16 0.36 -0.24 0.6 -0.24 c0.28 0 0.36 0.44 0.4 0.68 l0.64 6.84 c0 0.16 -0.08 0.2 -0.2 0.24 l-0.88 0.28 c-0.2 0.08 -0.4 0 -0.52 -0.28 c-0.44 -1.16 -1.12 -2.72 -2.48 -4.16 c-1 -1.12 -2.2 -1.68 -4 -1.68 c-3 0 -4.24 2.6 -4.24 3.64 c0 1.48 0.04 2.68 1.04 3.68 c1.04 1.08 3.32 2.04 5.28 2.6 c1.92 0.56 3.48 1.56 5.12 3.04 c1.56 1.4 2.2 3.16 2.2 5.96 c0 4.88 -3.48 8.84 -8.76 8.84 c-3.6 0 -5.48 -0.6 -7.16 -1.72 c-0.48 -0.32 -0.72 -0.44 -0.92 -0.44 c-0.24 0 -0.4 0.28 -0.64 0.68 c-0.24 0.44 -0.44 0.48 -0.72 0.48 c-0.44 0 -0.6 -0.2 -0.56 -0.64 l0.64 -7.6 c0.04 -0.28 0.16 -0.28 0.32 -0.28 z M167 40.56 c-2.92 0 -4.92 -0.6 -6.96 -2.92 c-1.52 -1.68 -2.12 -3.8 -2.12 -6.32 c0 -1.8 1 -4.76 3.44 -6.64 c2.04 -1.6 4.08 -2.04 5.96 -2.04 c2.76 0 4.64 0.84 6.44 2.52 c1.96 1.76 2.76 3.92 2.76 6.36 c0 2.32 -1 4.56 -2.56 6.24 c-1.92 2 -4.24 2.8 -6.96 2.8 z M167.24 38.88 c2.2 0 3.2 -3.24 3.2 -7.64 c0 -4.64 -1.6 -6.92 -3.36 -6.92 c-1 0 -1.64 0.28 -2.16 1.08 c-0.8 1.24 -1.32 2.96 -1.32 6.2 c0 2.32 0.2 3.84 1 5.56 c0.52 1.08 1.16 1.72 2.64 1.72 z M199.04 39 l-5.6 1.4 c-0.24 0.08 -0.52 0.16 -0.88 0.16 c-0.4 0 -0.64 -0.2 -0.68 -0.48 l-0.24 -2.16 l-0.24 0 c-0.8 1.4 -3.12 2.64 -5.28 2.64 c-1.6 0 -2.8 0 -4.2 -1.84 c-1.68 -2.24 -1.52 -3.52 -1.52 -6.96 l0.04 -1.76 c0 -1.52 0 -3.12 -0.04 -4 c-0.04 -0.96 -0.88 -1.32 -1.36 -1.4 c-0.68 -0.12 -0.88 -0.08 -0.88 -0.28 l0 -0.8 c0 -0.24 0.08 -0.32 0.44 -0.32 l5.84 0 c0.24 0 0.4 -0.04 0.56 -0.08 c0.16 0 0.32 -0.04 0.44 -0.04 c0.28 0 0.48 0.2 0.44 0.48 c-0.04 0.36 -0.16 2.24 -0.16 5.4 l0 2.16 c0 1.6 -0.24 4.6 0.76 6.16 c0.6 0.92 1.24 0.84 1.96 0.84 c0.68 0 1.56 -0.52 2.16 -1.28 c0.36 -0.4 0.64 -1.04 0.64 -1.44 l-0.04 -9.4 c0 -1 -0.72 -1.32 -1.72 -1.4 c-0.48 -0.04 -0.68 -0.08 -0.68 -0.28 l0 -0.76 c0 -0.32 0.08 -0.36 0.48 -0.36 l5.96 0 c0.28 0 0.48 -0.04 0.68 -0.08 c0.2 0 0.36 -0.04 0.48 -0.04 c0.24 0 0.4 0.2 0.36 0.4 c-0.04 0.36 -0.24 1.4 -0.24 5.44 l0 2.96 c0 1.92 0 3.88 0.08 4.6 c0.12 1.24 0.56 1.4 0.72 1.4 c0.24 0 0.84 0 1.32 -0.12 c0.32 -0.08 0.44 0 0.48 0.16 l0.12 0.76 c0.04 0.2 -0.04 0.28 -0.2 0.32 z M207.56 23.12 l0.44 1.72 l0.32 0 c0.44 -0.52 1.16 -1.04 1.92 -1.44 c0.88 -0.48 1.76 -0.76 3.08 -0.76 c1.56 0 3.08 0.16 4.12 1.12 c1.68 1.56 1.8 2.56 1.8 4.56 l0 4.24 c0 1.36 -0.08 3.24 -0.16 4.64 c-0.04 1.2 0.6 1.4 0.96 1.4 l1.08 0 c0.36 0 0.44 0.12 0.44 0.36 l0 0.72 c0 0.28 -0.08 0.44 -0.32 0.44 c-0.28 0 -1.52 -0.12 -4.72 -0.12 c-2.64 0 -3.92 0.12 -4.2 0.12 c-0.24 0 -0.32 -0.12 -0.32 -0.44 l0 -0.72 c0 -0.28 0.12 -0.36 0.52 -0.36 l0.44 0 c0.28 0 0.64 -0.2 0.72 -0.92 c0.16 -1.04 0.24 -2.32 0.24 -4.16 l0 -4.28 c0 -1.52 -0.12 -2.56 -0.96 -3.32 c-0.72 -0.64 -1.28 -0.72 -1.96 -0.72 c-0.72 0 -1.24 0.2 -2.04 0.8 c-0.48 0.36 -0.8 1.44 -0.8 3.08 l-0.08 8.2 c0 0.72 0.28 1.32 0.64 1.32 l0.52 0 c0.32 0 0.4 0.12 0.4 0.4 l0 0.76 c0 0.24 -0.08 0.36 -0.28 0.36 c-0.28 0 -1.36 -0.12 -4 -0.12 c-2.84 0 -4.12 0.12 -4.36 0.12 c-0.2 0 -0.28 -0.12 -0.28 -0.36 l0 -0.8 c0 -0.24 0.08 -0.36 0.4 -0.36 l0.6 0 c0.44 0 1.12 -0.12 1.12 -0.8 l0 -8.88 c0 -1.2 -0.68 -1.88 -1.6 -2.32 l-0.36 -0.16 c-0.24 -0.12 -0.28 -0.28 -0.28 -0.44 l0 -0.36 c0 -0.2 0.16 -0.32 0.36 -0.4 l5.12 -2.32 c0.32 -0.12 0.6 -0.28 0.92 -0.28 c0.24 0 0.48 0.2 0.56 0.48 z M235.35999999999999 23.16 l-0.16 -8.08 c-0.04 -1.12 -0.48 -1.76 -2.6 -2.28 c-0.24 -0.04 -0.28 -0.12 -0.28 -0.28 l0 -0.76 c0 -0.16 0.08 -0.28 0.32 -0.32 c2.36 -0.2 5.44 -0.44 6.76 -0.72 c0.56 -0.12 0.72 -0.2 1.04 -0.2 c0.24 0 0.4 0.28 0.36 0.72 c-0.16 2 -0.24 7.8 -0.24 13.44 l0 8.84 c0 1.48 0 3.04 0.4 3.68 c0.32 0.52 0.84 0.56 1.8 0.44 c0.44 -0.04 0.6 0.08 0.64 0.28 l0.12 0.6 c0.04 0.24 -0.04 0.36 -0.28 0.44 l-6 1.52 c-0.24 0.08 -0.44 -0.04 -0.56 -0.36 l-0.64 -2 c-1.28 1.48 -3.64 2.44 -5.36 2.44 c-2.08 0 -2.88 -0.16 -4.76 -1.92 c-1.56 -1.4 -2.52 -3.04 -2.52 -5.68 c0 -3.2 0.56 -5.28 2.8 -7.76 c1.56 -1.72 3.4 -2.56 5.92 -2.56 c1.32 0 2.48 0.24 3.24 0.52 z M235.44 35.2 l-0.12 -7.28 c0 -0.72 -0.04 -1.4 -0.32 -1.92 c-0.6 -1.08 -1.92 -1.8 -3.04 -1.8 c-0.72 0 -1.48 0.28 -2.08 1.12 c-0.96 1.32 -1.28 2.68 -1.28 4.6 c0 4.72 2.04 8 4.52 8 c1.08 0 1.52 -0.4 1.92 -0.8 c0.32 -0.32 0.4 -1.04 0.4 -1.92 z" fill="#111111"></path></g></svg>