<svg xmlns:xlink="http://www.w3.org/1999/xlink" xmlns="http://www.w3.org/2000/svg" id="rkoNeLIlZ4" viewBox="0 0 312.5 312.5" height="312.5" width="312.5" style="width: 312.5px; height: 312.5px; position: absolute; top: 50%; left: 50%; z-index: 0; cursor: pointer; transform: translate(-50%, -50%) scale(0.46144);"><defs id="SvgjsDefs1276"></defs><g id="SvgjsG1277" featurekey="rootContainer" transform="matrix(6.25,0,0,6.25,0,0)" fill="#00043C"><path xmlns="http://www.w3.org/2000/svg" d="M5 0h45v45a5 5 0 0 1-5 5H0V5a5 5 0 0 1 5-5z" fill="#00043C"></path></g><g id="SvgjsG1278" featurekey="symbolFeature-0" transform="matrix(1.4814814814814816,0,0,1.4814814814814816,108.5925925925926,89.62962962962963)" fill="#FFFFFF"><metadata xmlns="http://www.w3.org/2000/svg" fill="#FFFFFF"><sfw xmlns="http://ns.adobe.com/SaveForWeb/1.0/" fill="#FFFFFF"><slices fill="#FFFFFF"><slicesourcebounds height="16384" width="16389" x="-8165" y="-8160" bottomleftorigin="true" fill="#FFFFFF"></slicesourcebounds></slices></sfw></metadata><g xmlns="http://www.w3.org/2000/svg" fill="#FFFFFF"><g fill="#FFFFFF"><path d="M32,29c-4.962,0-9,4.037-9,9s4.038,9,9,9c4.963,0,9-4.037,9-9S36.963,29,32,29z M32,41c-1.654,0-3-1.346-3-3s1.346-3,3-3    s3,1.346,3,3S33.654,41,32,41z" fill="#FFFFFF"></path><circle cx="32" cy="38" r="1" fill="#FFFFFF"></circle><circle cx="32" cy="16" r="3" fill="#FFFFFF"></circle><path d="M46,7H18c-0.552,0-1,0.448-1,1v46c0,0.553,0.448,1,1,1h3v1c0,0.553,0.448,1,1,1s1-0.447,1-1v-1h18v1c0,0.553,0.447,1,1,1    s1-0.447,1-1v-1h3c0.553,0,1-0.447,1-1V8C47,7.448,46.553,7,46,7z M32,11c2.757,0,5,2.243,5,5s-2.243,5-5,5s-5-2.243-5-5    S29.243,11,32,11z M32,49c-6.065,0-11-4.935-11-11s4.935-11,11-11s11,4.935,11,11S38.065,49,32,49z" fill="#FFFFFF"></path><path d="M49.938,29.089c-0.506,0.221-0.737,0.811-0.516,1.317C50.469,32.804,51,35.359,51,38c0,2.643-0.531,5.2-1.58,7.6    c-0.222,0.506,0.01,1.096,0.516,1.316C50.065,46.974,50.202,47,50.335,47c0.386,0,0.753-0.224,0.917-0.6    C52.412,43.747,53,40.92,53,38c0-2.918-0.587-5.742-1.746-8.395C51.034,29.101,50.449,28.87,49.938,29.089z" fill="#FFFFFF"></path><path d="M13,38c0-2.643,0.532-5.2,1.581-7.6c0.221-0.506-0.01-1.096-0.516-1.317c-0.506-0.22-1.095,0.01-1.317,0.516    C11.588,32.253,11,35.08,11,38c0,2.919,0.588,5.745,1.749,8.401c0.165,0.376,0.532,0.6,0.917,0.6c0.134,0,0.27-0.026,0.4-0.084    c0.506-0.221,0.737-0.811,0.516-1.316C13.532,43.199,13,40.642,13,38z" fill="#FFFFFF"></path><path d="M56.755,27.806c-0.221-0.505-0.808-0.736-1.316-0.516c-0.506,0.221-0.737,0.811-0.516,1.317    C56.301,31.761,57,35.123,57,38.599c0,3.478-0.699,6.843-2.079,10c-0.222,0.506,0.01,1.096,0.516,1.316    c0.13,0.058,0.267,0.084,0.399,0.084c0.386,0,0.753-0.224,0.917-0.6C58.244,45.987,59,42.354,59,38.599    C59,34.846,58.245,31.215,56.755,27.806z" fill="#FFFFFF"></path><path d="M7,38.599c0-3.477,0.7-6.841,2.08-10.001c0.221-0.506-0.01-1.096-0.516-1.317c-0.506-0.219-1.096,0.01-1.317,0.516    C5.756,31.211,5,34.845,5,38.599c0,3.753,0.756,7.388,2.249,10.802C7.413,49.776,7.78,50,8.166,50c0.134,0,0.27-0.026,0.4-0.084    c0.506-0.221,0.737-0.811,0.516-1.316C7.7,45.439,7,42.074,7,38.599z" fill="#FFFFFF"></path></g></g></g><g id="SvgjsG1279" featurekey="nameFeature-0" transform="matrix(0.5934426829230747,0,0,0.5934426829230747,54.69027198860166,188.3555263036841)" fill="#FFFFFF"><path d="M2.207 10.390999999999998 l12.676 0 l0 5.3711 l-3.125 0 l0 18.887 l6.4453 0 q0.25390625 0 0.498046875 -0.146484375 t0.42969 -0.38086 t0.30273 -0.50781 t0.11719 -0.52734 l0 -3.9648 l6.3281 0 l0 10.879 l-23.672 0 l0 -5.3516 l3.0664 0 l0 -18.887 l-3.0664 0 l0 -5.3711 z M28.43017203125 10.390999999999998 l11.875 0 l0 5.3711 l-2.7148 0 l0 12.285 q0 1.6796875 0.380859375 2.8515625 t1.0645 1.9141 t1.6211 1.084 t2.0508 0.3418 q1.15234375 0 2.099609375 -0.29296875 t1.6211 -1.0059 t1.0352 -1.9043 t0.36133 -2.9883 l0 -12.285 l-3.1445 0 l0 -5.3711 l11.875 0 l0 5.3711 l-2.3633 0 l0 11.523 q0 3.125 -0.8984375 5.556640625 t-2.4707 4.1113 t-3.6914 2.5586 t-4.541 0.87891 q-2.40234375 0 -4.4921875 -0.869140625 t-3.6426 -2.5195 t-2.4512 -4.0137 t-0.89844 -5.3516 l0 -11.875 l-2.6758 0 l0 -5.3711 z M61.2743828125 34.6484 l2.7539 0 l0 -18.887 l-2.7539 0 l0 -5.3711 l12.188 0 l8.7305 21.367 l8.1055 -21.367 l12.363 0 l0 5.3711 l-2.7539 0 l0 18.887 l2.7148 0 l0 5.3516 l-11.074 0 l0 -5.3516 l2.0313 0 l0 -17.031 l-8.8672 22.031 l-5.4883 0 l-9.0234 -21.445 l0 16.445 l2.207 0 l0 5.3516 l-11.133 0 l0 -5.3516 z M108.22018359375 10.390999999999998 l12.676 0 l0 5.3516 l-3.125 0 l0 18.906 l3.125 0 l0 5.3516 l-12.676 0 l0 -5.3516 l3.0664 0 l0 -18.906 l-3.0664 0 l0 -5.3516 z M143.896515625 10.390999999999998 l11.25 0 l0 5.3711 l-2.4023 0 l0 24.238 l-6.4844 0 l-12.324 -19.141 l0 13.789 l2.4805 0 l0 5.3516 l-11.23 0 l0 -5.3516 l2.4414 0 l0 -18.887 l-2.4023 0 l0 -5.3711 l8.9453 0 l12.246 19.395 l0 -14.023 l-2.5195 0 l0 -5.3711 z M174.72859765625 34.6484 l2.9492 0 l-1.3281 -4.2578 l-9.1016 0 l-1.3281 4.2578 l3.125 0 l0 5.3516 l-11.23 0 l0 -5.3516 l2.207 0 l8.0664 -24.258 l7.832 0 l7.8906 24.258 l2.1484 0 l0 5.3516 l-11.23 0 l0 -5.3516 z M168.79159765625 25.391 l5.9766 0 l-3.0078 -9.6289 z M203.9987109375 18.73 q-0.09765625 -0.68359375 -0.478515625 -1.2890625 t-0.97656 -1.0449 t-1.3477 -0.69336 t-1.5723 -0.25391 q-0.7421875 0 -1.38671875 0.15625 t-1.123 0.47852 t-0.76172 0.83008 t-0.2832 1.2109 q0 0.87890625 0.380859375 1.396484375 t0.97656 0.84961 t1.3184 0.52734 t1.4063 0.42969 l5.3711 1.7969 q1.11328125 0.390625 2.08984375 1.07421875 t1.6895 1.6602 t1.123 2.2461 t0.41016 2.8516 q0 2.1484375 -0.791015625 3.92578125 t-2.2168 3.0469 t-3.418 1.9727 t-4.4141 0.70313 q-1.69921875 0 -3.212890625 -0.380859375 t-2.7637 -1.1035 t-2.1875 -1.7285 t-1.4648 -2.2754 l-2.0117 0 l0 -5.8789 l7.0703 0 l0 1.2109 q0 0.87890625 0.283203125 1.62109375 t0.84961 1.2891 t1.4258 0.84961 t2.0117 0.30273 q1.7578125 0 2.67578125 -0.810546875 t0.91797 -2.2559 q0 -0.7421875 -0.322265625 -1.240234375 t-0.83008 -0.83984 t-1.1328 -0.57617 t-1.2305 -0.42969 l-4.4727 -1.4453 q-1.26953125 -0.390625 -2.451171875 -1.09375 t-2.0898 -1.7578 t-1.4453 -2.4707 t-0.53711 -3.2324 q0 -2.109375 0.78125 -3.759765625 t2.1875 -2.7832 t3.3398 -1.7188 t4.2383 -0.58594 q1.81640625 0 3.359375 0.419921875 t2.7637 1.123 t2.0703 1.6113 t1.2988 1.8848 l1.9531 0 l0 5.8984 l-7.0703 0 l0 -1.7188 z M228.62013671875 40.52734 q-2.01171875 0 -3.84765625 -0.546875 t-3.4277 -1.543 t-2.8906 -2.3926 t-2.2168 -3.1055 t-1.4258 -3.6621 t-0.50781 -4.082 t0.50781 -4.0918 t1.4258 -3.6719 t2.2168 -3.1055 t2.8906 -2.3926 t3.4277 -1.543 t3.8477 -0.54688 t3.8574 0.54688 t3.4375 1.543 t2.8906 2.3926 t2.2266 3.1055 t1.4355 3.6719 t0.50781 4.0918 q0 2.109375 -0.5078125 4.072265625 t-1.4355 3.6719 t-2.2266 3.1055 t-2.8906 2.3926 t-3.4375 1.543 t-3.8574 0.54688 z M228.62013671875 34.3945 q1.69921875 0 3.115234375 -0.732421875 t2.4316 -1.9922 t1.5723 -2.9297 t0.55664 -3.5449 q0 -1.89453125 -0.56640625 -3.57421875 t-1.5918 -2.9395 t-2.4316 -1.9922 t-3.0859 -0.73242 t-3.0859 0.73242 t-2.4219 1.9922 t-1.5918 2.9395 t-0.57617 3.5742 q0 1.875 0.576171875 3.544921875 t1.5918 2.9297 t2.4219 1.9922 t3.0859 0.73242 z M246.79687125 10.390999999999998 l11.875 0 l0 5.3711 l-2.7148 0 l0 12.285 q0 1.6796875 0.380859375 2.8515625 t1.0645 1.9141 t1.6211 1.084 t2.0508 0.3418 q1.15234375 0 2.099609375 -0.29296875 t1.6211 -1.0059 t1.0352 -1.9043 t0.36133 -2.9883 l0 -12.285 l-3.1445 0 l0 -5.3711 l11.875 0 l0 5.3711 l-2.3633 0 l0 11.523 q0 3.125 -0.8984375 5.556640625 t-2.4707 4.1113 t-3.6914 2.5586 t-4.541 0.87891 q-2.40234375 0 -4.4921875 -0.869140625 t-3.6426 -2.5195 t-2.4512 -4.0137 t-0.89844 -5.3516 l0 -11.875 l-2.6758 0 l0 -5.3711 z M298.35208203125 10.390999999999998 l11.25 0 l0 5.3711 l-2.4023 0 l0 24.238 l-6.4844 0 l-12.324 -19.141 l0 13.789 l2.4805 0 l0 5.3516 l-11.23 0 l0 -5.3516 l2.4414 0 l0 -18.887 l-2.4023 0 l0 -5.3711 l8.9453 0 l12.246 19.395 l0 -14.023 l-2.5195 0 l0 -5.3711 z M313.3447640625 10.390999999999998 l11.367 0 q2.03125 0 3.896484375 0.52734375 t3.4766 1.4844 t2.9297 2.2949 t2.2559 2.9785 t1.4453 3.5352 t0.50781 3.9453 t-0.50781 3.9453 t-1.4453 3.5449 t-2.2559 3.0078 t-2.9297 2.3242 t-3.4766 1.4941 t-3.8965 0.52734 l-11.367 0 l0 -5.3516 l2.3633 0 l0 -18.887 l-2.3633 0 l0 -5.3711 z M322.1921640625 15.762 l0 18.887 l2.4805 0 q1.58203125 0 2.98828125 -0.7421875 t2.4414 -2.0215 t1.6406 -3.0078 t0.60547 -3.7207 q0 -1.97265625 -0.60546875 -3.69140625 t-1.6406 -2.9883 t-2.4414 -1.9922 t-2.9883 -0.72266 l-2.4805 0 z" fill="#FFFFFF"></path></g></svg>