<svg xmlns:xlink="http://www.w3.org/1999/xlink" xmlns="http://www.w3.org/2000/svg" id="vKba37Ynhe" viewBox="0 0 370.18518518518516 68.43997676653558" height="68.43997676653558" width="370.18518518518516" style="width: 370.185px; height: 68.44px; position: absolute; top: 50%; left: 50%; z-index: 0; cursor: pointer; transform: translate(-50%, -50%) scale(0.547834);"><defs id="SvgjsDefs1351"></defs><g id="SvgjsG1352" featurekey="symbolFeature-0" transform="matrix(0.8173116889118787,0,0,0.8173116889118787,-5.305881953234405,-6.739613220754863)" fill="#0F81C7"><path xmlns="http://www.w3.org/2000/svg" d="M73.817,56.75c0.022,0.002,0.044,0.004,0.065,0.004c0.433,0,0.8-0.335,0.833-0.775l2.246-29.281  c0.019-0.266-0.086-0.523-0.285-0.697c-0.2-0.174-0.465-0.245-0.729-0.19c-6.749,1.47-13.09,1.357-20.566-0.364  c-2.842-0.651-5.436-1.584-7.945-2.49c-4.826-1.735-8.993-3.237-12.419-1.568c-0.27,0.133-0.448,0.399-0.469,0.699L33.818,32.76  c-0.032,0.458,0.316,0.86,0.778,0.89c0.478,0.035,0.862-0.314,0.893-0.777l0.695-10.163c2.731-1.036,6.268,0.236,10.685,1.825  c2.436,0.878,5.195,1.871,8.134,2.545c7.326,1.687,13.606,1.878,20.202,0.596l-2.161,28.176  C73.01,56.312,73.356,56.715,73.817,56.75z" fill="#0F81C7"></path><path xmlns="http://www.w3.org/2000/svg" d="M64.996,91.969c4.496,0,9.37-2.247,12.394-5.984c4.402-5.44,4.869-14.334,5.093-18.609l0.035-0.601  c0.361-6.468,0.964-15.902,0.971-15.996c0.043-0.692-0.481-1.288-1.174-1.334c-0.686-0.041-1.29,0.479-1.334,1.174  c-0.006,0.099-0.61,9.537-0.972,16.016l-0.033,0.61c-0.211,4.014-0.649,12.353-4.538,17.16c-3.241,4.003-8.945,5.998-13.261,4.64  c-1.958-0.614-4.354-2.187-4.642-6.186c-0.668-9.278,11.594-14.739,16.821-15.457c0.688-0.092,1.168-0.724,1.074-1.412  c-0.094-0.69-0.721-1.169-1.416-1.078c-6.787,0.931-19.759,7.391-18.984,18.13c0.3,4.154,2.631,7.219,6.395,8.4  C62.556,91.799,63.761,91.969,64.996,91.969z" fill="#0F81C7"></path><path xmlns="http://www.w3.org/2000/svg" d="M83.547,28.793c0.705,0.053,1.291-0.479,1.337-1.171L85.792,13.8c0.027-0.447-0.183-0.878-0.556-1.128  c-0.374-0.248-0.849-0.282-1.253-0.08c-10.301,5.062-25.022,2.359-34.519-1.504c-10.379-4.044-16.54-2.744-18.247-2.224  c-3.815,0.91-4.379,3.262-4.375,4.523L24.474,65.09c-6.987,1.396-18.685,7.742-17.949,17.953c0.301,4.17,2.649,7.24,6.442,8.421  c1.129,0.351,2.327,0.52,3.554,0.52c4.505,0,9.373-2.258,12.368-6.002c5.074-6.341,5.752-17.19,5.779-17.649  c0.041-0.695-0.488-1.288-1.181-1.33c-0.688-0.053-1.287,0.488-1.327,1.183c-0.007,0.103-0.664,10.516-5.232,16.225  c-3.199,3.998-8.88,6.004-13.212,4.652c-1.979-0.614-4.394-2.187-4.683-6.204c-0.669-9.278,11.594-14.739,16.821-15.457  c0.6-0.082,1.057-0.58,1.084-1.187l2.416-52.774c-0.001-0.667,0.252-1.619,2.481-2.141c0.029-0.009,0.058-0.016,0.086-0.025  c1.029-0.321,6.674-1.729,16.615,2.148c9.836,4.001,23.8,6.541,34.613,2.279l-0.773,11.754  C82.33,28.151,82.854,28.748,83.547,28.793z" fill="#0F81C7"></path></g><g id="SvgjsG1353" featurekey="nameFeature-0" transform="matrix(1.0904909649957049,0,0,1.0904909649957049,81.85938693598881,5.914110499997992)" fill="#111111"><path d="M9.28 12 l0 21.6 l10.32 0 l0 6.4 l-16.72 0 l0 0 l0 -28 l6.4 0 z M38.760000000000005 33.6 l0 -21.6 l6.4 0 l0 23.04 c0 2.76 -2.24 4.96 -5 4.96 l-9.84 0 c-2.76 0 -4.96 -2.2 -4.96 -4.96 l0 -23.04 l6.4 0 l0 21.6 l7 0 z M67.52000000000001 12 l6.4 0 l0 28 l-6.4 0 l0 -12.52 l-4.08 9.84 l-2.04 0 l-4.08 -9.84 l0 12.52 l-6.4 0 l0 -28 l6.4 0 l5.08 12.28 z M86.08000000000001 12 l0 28 l-6.4 0 l0 -28 l6.4 0 z M105.24000000000001 12 l6.4 0 l0 28 l-6.4 0 l-7 -14.56 l0 14.56 l-6.4 0 l0 -28 l6.4 0 l7 14.6 l0 -14.6 z M131.56 12 l7.8 28 l-6.4 0 l-1.12 -4.04 l-6.92 0 l-1.12 4.04 l-6.4 0 l7.8 -28 l6.36 0 z M126.72000000000001 29.439999999999998 l3.32 0 l-1.68 -5.96 z M157.16000000000003 22.8 c2.76 0 5 2.24 5 5 l0 7.24 c0 2.76 -2.24 4.96 -5 4.96 l-12.64 0 l0 -6.4 l11.2 0 l0 -4.36 l-6.24 0 c-2.76 0 -4.96 -2.24 -4.96 -5 l0 -7.24 c0 -2.76 2.24 -5 4.96 -5 l12.68 0 l0 6.44 l-11.24 0 l0 4.36 l6.24 0 z M182.76000000000002 12 c2.72 0 5.04 2.24 5.04 5 l-0.08 18.04 c0 2.76 -2.24 4.96 -5 4.96 l-9.84 0 c-2.72 0 -4.96 -2.2 -4.96 -4.96 l0 -18.04 c0 -2.76 2.24 -5 4.96 -5 l9.88 0 z M181.32000000000002 33.6 l0 -15.16 l-7 0 l0 15.16 l7 0 z M206.88000000000002 33.6 l0 -21.6 l6.4 0 l0 23.04 c0 2.76 -2.24 4.96 -5 4.96 l-9.84 0 c-2.76 0 -4.96 -2.2 -4.96 -4.96 l0 -23.04 l6.4 0 l0 21.6 l7 0 z M232.44000000000003 12 l6.4 0 l0 28 l-6.4 0 l-7 -14.56 l0 14.56 l-6.4 0 l0 -28 l6.4 0 l7 14.6 l0 -14.6 z M259.44000000000005 12 c2.72 0 4.96 2.24 4.96 5 l0 18 c0 2.76 -2.24 5 -4.96 5 l-14.84 0 l0 -28 l14.84 0 z M258 32.24 l0 -12.48 c0 -0.76 -0.6 -1.32 -1.32 -1.32 l-5.68 0 l0 15.16 l5.68 0 c0.72 0 1.32 -0.6 1.32 -1.36 z" fill="#111111"></path></g></svg>