<svg xmlns:xlink="http://www.w3.org/1999/xlink" xmlns="http://www.w3.org/2000/svg" id="gWg34X70Z" viewBox="0 0 410.15384615384613 81" height="81" width="410.15384615384613" style="width: 410.154px; height: 81px; position: absolute; top: 50%; left: 50%; z-index: 0; cursor: pointer; transform: translate(-50%, -50%) scale(0.494449);"><defs id="SvgjsDefs1062"></defs><g id="SvgjsG1063" featurekey="symbolContainer" transform="matrix(1,0,0,1,0,0)" fill="#111111"><rect width="94" height="81" rx="8" fill="#111111"></rect></g><g id="SvgjsG1064" featurekey="symbolFeature-0" transform="matrix(0.5982905982905983,0,0,0.5982905982905983,17.00854700854701,12.008547008547009)" fill="#FCE38A"><g xmlns="http://www.w3.org/2000/svg" transform="translate(0,-952.36218)" fill="#FCE38A"><path style="" d="M 50,5 C 25.147186,5 5,25.147186 5,50 c 0.00768,16.601516 9.155293,31.850285 23.798828,39.671875 0.231549,-5.25294 3.472358,-10.125687 8.78125,-13.203125 L 37.433594,73.570312 C 34.497365,71.050191 32.861895,67.729691 32.857422,64.279297 32.86762,57.904259 38.384506,52.387373 46.136719,51 l 0,-22.212891 -0.482422,0 0,-1.449218 0.482422,0 0,-1.423829 c -0.593814,-0.378776 -0.964844,-0.857663 -0.964844,-1.388671 l 0,-9.492188 c 0,-1.215757 1.864986,-2.195312 4.181641,-2.195312 l 1.292968,0 c 2.316655,0 4.181641,0.979555 4.181641,2.195312 l 0,9.492188 c 0,0.531008 -0.37103,1.009895 -0.964844,1.388671 l 0,1.423829 0.482422,0 0,1.449218 -0.482422,0 0,22.275391 c 7.588909,1.490251 12.930151,6.945976 12.939453,13.216797 -0.0075,3.52046 -1.712534,6.901926 -4.757812,9.435547 l -0.04102,2.492187 c 5.544506,3.062885 8.949409,8.055727 9.175782,13.455078 C 85.828447,81.847922 94.984479,66.602633 95,50 95,25.147186 74.852814,5 50,5 Z m -5.308594,10.404297 0.0078,1.158203 0,1.158203 c -0.63886,9.89e-4 -1.157911,-0.51544 -1.160157,-1.154297 -0.0021,-0.638862 0.513487,-1.158788 1.152344,-1.162109 z m 10.591797,0.04297 c 0.638093,0.0044 1.152465,0.524005 1.150391,1.162109 -0.0012,0.638857 -0.519345,1.156158 -1.158203,1.15625 l 0,-1.160156 z m -10.591797,2.884765 0.0078,1.158203 0,1.158204 c -0.63962,9.87e-4 -1.158986,-0.51663 -1.160157,-1.15625 -9.92e-4,-0.638101 0.514251,-1.156838 1.152344,-1.160157 z M 55.283203,18.375 c 0.637329,0.0044 1.151388,0.522813 1.150391,1.160156 -0.0012,0.638857 -0.519345,1.156158 -1.158203,1.15625 l 0,-1.158203 z m -10.591797,2.822266 0.0078,1.158203 0,1.158203 c -0.63962,9.87e-4 -1.158986,-0.51663 -1.160157,-1.15625 -9.92e-4,-0.6381 0.514251,-1.156837 1.152344,-1.160156 z m 10.591797,0.04297 c 0.637329,0.0044 1.151389,0.522814 1.150391,1.160157 -0.0012,0.638857 -0.519345,1.156158 -1.158203,1.15625 l 0,-1.158203 z" transform="translate(0,952.36218)" fill="#FCE38A" fill-opacity="1" stroke="none"></path></g></g><g id="SvgjsG1065" featurekey="nameFeature-0" transform="matrix(1.875624254464678,0,0,1.875624254464678,111.30893923057153,-16.110667345705657)" fill="#111111"><path d="M13.88 41.96 l0.28 0.08 l1.28 0 c0.04 -0.04 0.08 0 0.16 -0.04 c0.04 0.04 0.08 0 0.12 0 l0.28 0 c0.08 -0.04 0.16 -0.04 0.24 -0.04 c0.04 -0.04 0.12 0 0.2 -0.04 c0.08 0 0.2 -0.04 0.28 -0.04 c0.16 0 0.28 -0.04 0.44 -0.08 l0.36 -0.08 c0.04 0 0.08 0 0.12 -0.04 c0.16 0.04 0.28 0 0.4 -0.04 s0.2 0 0.32 0.04 c0.04 0 0.04 0.04 0.08 0.04 c0.16 0.08 0.16 0.24 0.04 0.36 c-0.08 0.08 -0.16 0.16 -0.28 0.2 l-0.28 0.24 l-0.4 0.2 l-0.2 0.12 c-0.12 0.04 -0.2 0.12 -0.36 0.2 c-0.12 0.04 -0.28 0.08 -0.4 0.16 c-0.24 0.08 -0.48 0.16 -0.72 0.2 l-0.56 0.12 l-0.32 0.08 l-0.4 0 c-0.04 0 -0.08 0.04 -0.16 0.04 l-0.36 0 c-0.08 0.04 -0.16 0 -0.24 0 l-0.16 0 c-0.16 0 -0.36 0 -0.52 -0.04 c-0.12 0 -0.24 0 -0.36 -0.04 c-0.2 -0.04 -0.36 -0.08 -0.52 -0.08 l-0.48 -0.12 c-0.12 -0.04 -0.28 -0.08 -0.44 -0.16 l-0.68 -0.24 c-0.2 -0.12 -0.36 -0.24 -0.56 -0.32 c-0.24 -0.08 -0.52 -0.24 -0.76 -0.36 l-0.44 -0.28 c-0.12 -0.08 -0.24 -0.16 -0.36 -0.2 c-0.08 -0.08 -0.16 -0.12 -0.24 -0.16 c-0.08 -0.08 -0.24 -0.16 -0.36 -0.24 l-0.2 -0.16 l-0.44 -0.28 c-0.08 0 -0.08 -0.08 -0.16 -0.08 c-0.16 -0.12 -0.32 -0.24 -0.52 -0.32 c-0.08 -0.08 -0.16 -0.12 -0.24 -0.16 l-0.2 -0.16 c-0.08 -0.04 -0.16 -0.08 -0.24 -0.16 l-0.32 -0.28 c-0.2 -0.12 -0.36 -0.24 -0.6 -0.36 l-0.2 -0.12 c-0.04 -0.04 -0.08 -0.04 -0.16 0 c-0.24 0.16 -0.48 0.24 -0.72 0.32 c-0.72 0.36 -1.6 0.52 -2.16 -0.04 l-0.08 -0.08 c-0.32 -0.28 -0.32 -1 -0.04 -1.28 c0.08 -0.08 0.2 -0.16 0.36 -0.2 c0.12 -0.04 0.24 -0.04 0.32 -0.04 c0.16 -0.04 0.28 -0.04 0.44 -0.04 l0.36 0.08 c0.12 0 0.24 0.04 0.36 0.04 c0.08 0 0.16 0.04 0.2 0.08 c0.08 0 0.16 0 0.2 0.04 l0.08 0 l0.28 -0.2 c0.12 -0.12 0.28 -0.24 0.44 -0.32 c0.04 -0.08 0.12 -0.12 0.2 -0.2 c0.2 -0.12 0.32 -0.28 0.48 -0.4 c0.12 -0.16 0.24 -0.28 0.36 -0.36 l0.32 -0.32 c0.2 -0.2 0.48 -0.4 0.68 -0.64 c0.08 -0.12 0.2 -0.2 0.28 -0.4 c0.04 0 0.04 -0.04 0.08 -0.04 l0.12 -0.16 l0.16 -0.2 c0.16 -0.16 0.28 -0.36 0.4 -0.52 l0.28 -0.32 l0.4 -0.68 c0.04 -0.04 0.08 -0.12 0.16 -0.16 c0 -0.12 0.08 -0.2 0.16 -0.28 l0.32 -0.64 c0.04 -0.04 0.08 -0.12 0.08 -0.16 c0.12 -0.16 0.2 -0.36 0.36 -0.56 l0.28 -0.48 l0.12 -0.28 c0.12 -0.16 0.2 -0.32 0.24 -0.44 c0.28 -0.56 0.6 -1.16 0.92 -1.68 l0.4 -0.76 l0.2 -0.4 l0.12 -0.16 l0.16 -0.32 l0.16 -0.28 l0.32 -0.52 l0.32 -0.52 l0.28 -0.44 l0.2 -0.4 l0.24 -0.4 c0.16 -0.24 0.32 -0.48 0.52 -0.72 c0.12 -0.24 0.24 -0.4 0.36 -0.6 l0.56 -0.76 c0.12 -0.16 0.24 -0.4 0.36 -0.52 c0.2 -0.2 0.32 -0.36 0.48 -0.56 c0.16 -0.16 0.28 -0.36 0.4 -0.52 c0.12 -0.12 0.2 -0.28 0.32 -0.36 l0.16 -0.2 c0 -0.04 0.04 -0.08 0.08 -0.12 l0.24 -0.24 c0.08 -0.04 0.12 -0.08 0.16 -0.16 l0.12 -0.12 c0.08 -0.04 0.12 -0.12 0.16 -0.16 l0.16 -0.12 c0.2 -0.24 0.4 -0.4 0.6 -0.56 l0.48 -0.32 l0.64 -0.36 c0.16 -0.08 0.32 -0.12 0.56 -0.16 c0.04 -0.04 0.12 -0.04 0.16 -0.04 c0.12 -0.04 0.24 -0.04 0.32 -0.04 c0.16 0 0.52 0 0.68 0.04 l0.32 0.08 c0.12 0 0.24 0.04 0.32 0.12 c0.12 0.08 0.2 0.2 0.28 0.32 s0.16 0.24 0.2 0.4 c0.08 0.2 0.12 0.48 0.12 0.68 l0 0.28 c0 0.2 -0.04 0.36 -0.08 0.56 l-0.24 0.6 l-0.16 0.2 c-0.12 0.12 -0.2 0.24 -0.36 0.32 c-0.12 0.08 -0.2 0.12 -0.32 0.12 c-0.08 0.04 -0.2 0 -0.28 -0.04 c-0.12 -0.04 -0.16 -0.12 -0.24 -0.2 c0 -0.04 -0.04 -0.08 -0.04 -0.12 c0 0 -0.04 -0.04 0 -0.08 l0 -0.04 c0 -0.12 0.08 -0.2 0.12 -0.28 c0.12 -0.12 0.24 -0.28 0.36 -0.36 c0.04 -0.08 0.12 -0.16 0.2 -0.24 l0.12 -0.28 c0.08 -0.12 0.12 -0.28 0.2 -0.44 c0 -0.16 0 -0.32 -0.08 -0.48 c0 -0.04 -0.04 -0.08 -0.04 -0.08 c-0.12 -0.16 -0.28 -0.28 -0.48 -0.32 c-0.08 0 -0.16 0 -0.24 0.04 l-0.28 0.08 l-0.56 0.24 c-0.16 0.2 -0.36 0.32 -0.56 0.48 c-0.12 0.12 -0.28 0.24 -0.36 0.4 c-0.12 0.12 -0.2 0.24 -0.28 0.36 c-0.16 0.16 -0.28 0.32 -0.4 0.52 l-0.28 0.44 l-0.24 0.28 l-0.2 0.28 c-0.2 0.32 -0.4 0.68 -0.68 1 c-0.08 0.16 -0.2 0.32 -0.32 0.48 l-0.24 0.48 c-0.08 0.12 -0.16 0.2 -0.2 0.32 l-0.24 0.4 c0 0.04 -0.04 0.08 -0.08 0.12 c-0.08 0.12 -0.12 0.24 -0.24 0.32 c-0.12 0.32 -0.28 0.56 -0.4 0.8 c-0.04 0.12 -0.12 0.24 -0.2 0.36 l-0.2 0.4 c-0.04 0.2 -0.16 0.32 -0.24 0.48 l-0.12 0.24 c-0.04 0.12 -0.08 0.2 -0.16 0.28 c0 0.04 -0.04 0.08 -0.04 0.12 c-0.04 0.12 -0.2 0.24 -0.24 0.36 c0 0.08 -0.04 0.12 -0.08 0.2 l-0.36 0.64 l-0.28 0.56 l-0.08 0.2 l-0.36 0.68 l-0.28 0.44 l-0.24 0.52 c-0.04 0.08 -0.12 0.16 -0.16 0.28 l-0.28 0.44 c-0.04 0.12 -0.12 0.2 -0.2 0.32 l-0.2 0.44 c-0.12 0.12 -0.2 0.28 -0.36 0.44 c-0.12 0.16 -0.2 0.36 -0.32 0.56 c-0.08 0.04 -0.12 0.12 -0.16 0.2 c-0.08 0.2 -0.2 0.32 -0.28 0.44 l-0.24 0.32 c-0.12 0.12 -0.2 0.28 -0.32 0.44 c-0.2 0.12 -0.32 0.28 -0.44 0.48 l-0.28 0.32 c-0.04 0 -0.04 0.04 -0.08 0.04 l-0.04 0.04 c0 0.08 -0.08 0.12 -0.12 0.2 c-0.16 0.12 -0.32 0.28 -0.44 0.44 l-0.32 0.24 l-0.28 0.32 l-0.24 0.16 c-0.2 0.2 -0.36 0.4 -0.6 0.52 l-0.44 0.32 l-0.32 0.24 l-0.32 0.28 l-0.16 0.12 c-0.04 0 -0.04 0 0 0.04 s0.12 0.08 0.2 0.08 l0.28 0.12 c0.2 0.12 0.44 0.2 0.68 0.32 l0.32 0.16 l0.2 0.12 l0.44 0.24 c0.24 0.2 0.56 0.32 0.8 0.48 c0.2 0.12 0.44 0.2 0.68 0.32 c0.12 0.04 0.24 0.12 0.44 0.16 l0.92 0.36 c0.28 0.08 0.6 0.2 0.84 0.32 c0.2 0.04 0.36 0.12 0.56 0.12 l0.4 0.08 c0.04 0.04 0.08 0.04 0.12 0.04 c0.12 0 0.24 0.04 0.32 0.04 l0.4 0.08 c0.08 0.04 0.16 0.04 0.2 0.04 c0.16 0.04 0.32 0.08 0.44 0.04 z M30.4 32.84 l0.04 0.04 c0 0.12 0 0.2 -0.04 0.24 c-0.04 0.16 -0.12 0.32 -0.2 0.4 l-0.52 0.72 l-0.56 0.76 l-0.52 0.76 l-0.48 0.64 l-0.12 0.2 l-0.6 0.68 l-0.68 0.72 c-0.12 0.2 -0.28 0.32 -0.44 0.48 l-0.84 0.76 l-0.16 0.08 l-0.44 0.2 c-0.2 0.16 -0.4 0.2 -0.6 0.24 c-0.12 0 -0.24 0.04 -0.36 0.04 s-0.24 -0.04 -0.36 -0.08 s-0.24 -0.04 -0.36 -0.04 l-0.2 -0.16 l-0.28 -0.2 c-0.28 -0.2 -0.44 -0.44 -0.56 -0.72 c-0.12 -0.44 -0.16 -0.92 -0.08 -1.44 c-0.8 1.08 -2.64 2.64 -4.2 2.64 l-0.44 0 c-0.12 0 -0.24 -0.04 -0.36 -0.08 l-0.04 0 c-0.04 0 -0.08 0 -0.16 -0.04 l-0.16 0 l-0.04 -0.08 c-0.12 0 -0.2 -0.08 -0.24 -0.12 l-0.2 -0.16 c-0.28 -0.2 -0.44 -0.44 -0.56 -0.72 c-0.64 -1.92 1.28 -5.2 2.72 -8.04 l0.12 -0.2 c0.08 -0.16 0.24 -0.28 0.32 -0.52 l0.36 -0.56 c0.08 -0.2 0.24 -0.4 0.36 -0.56 c0.08 -0.04 0.16 -0.2 0.28 -0.24 c0.08 -0.08 0.24 -0.12 0.36 -0.12 l0.4 0 c0.08 -0.04 0.16 -0.04 0.24 0 c0.16 0 0.36 0.04 0.52 0.08 c0.2 0.04 0.4 0.16 0.52 0.36 c0 0.08 0 0.12 -0.04 0.2 l-0.44 0.84 l-0.32 0.48 l-0.08 0.2 l-0.24 0.4 l-0.6 1.08 c-0.12 0.28 -0.28 0.52 -0.44 0.76 l-0.52 1.04 l-0.48 0.88 l-0.32 0.68 l-0.2 0.32 l-0.24 0.72 c-0.08 0.16 -0.12 0.36 -0.16 0.48 c0 0.08 -0.04 0.16 -0.04 0.24 c-0.12 0.52 -0.16 1.68 0.68 1.68 c1.6 0 3.4 -2.04 4.04 -3.28 c0.08 -0.16 0.4 -1.08 0.52 -1.24 l0.24 -0.52 l1.64 -3.2 l0.12 -0.2 c0.08 -0.16 0.24 -0.28 0.32 -0.52 l0.36 -0.56 c0.08 -0.2 0.24 -0.4 0.36 -0.56 c0.08 -0.04 0.16 -0.2 0.28 -0.24 c0.08 -0.08 0.24 -0.12 0.36 -0.12 l0.4 0 c0.08 -0.04 0.16 -0.04 0.24 0 c0.16 0 0.36 0.04 0.52 0.08 c0.2 0.04 0.4 0.16 0.52 0.36 c0 0.08 0 0.12 -0.04 0.2 l-0.44 0.84 l-0.32 0.48 l-0.08 0.2 l-0.24 0.4 l-0.6 1.08 c-0.12 0.28 -0.28 0.52 -0.44 0.76 l-0.52 1.04 l-0.48 0.88 l-0.32 0.68 l-0.2 0.32 l-0.24 0.72 c-0.08 0.16 -0.12 0.36 -0.16 0.48 c0 0.08 -0.04 0.16 -0.04 0.24 c0 0.12 -0.04 0.32 -0.04 0.44 c0 0.2 0.08 0.32 0.08 0.44 l0.16 0.24 c0.04 0.04 0.08 0.12 0.16 0.16 c0.08 0.08 0.16 0.12 0.24 0.12 c0.12 0 0.28 0 0.4 -0.04 c0.08 0 0.16 -0.08 0.24 -0.12 c0.2 -0.08 0.36 -0.2 0.52 -0.36 l0.44 -0.44 c0.24 -0.32 0.52 -0.6 0.76 -0.96 l0.36 -0.44 c0.12 -0.12 0.24 -0.2 0.32 -0.4 l0.16 -0.16 c0.2 -0.24 0.32 -0.48 0.52 -0.64 l0.36 -0.56 l0.44 -0.56 l0.56 -0.76 c0.04 -0.08 0.16 -0.2 0.2 -0.32 l0.08 0 c0.04 0.04 0.08 0.04 0.12 0.04 s0.08 0 0.12 0.04 z M49.88 32.84 l0.04 0.04 c0 0.08 0 0.16 -0.04 0.24 c-0.04 0.16 -0.12 0.28 -0.2 0.4 c-0.2 0.24 -0.6 0.88 -0.76 1.12 c-2 2.32 -3.8 5.16 -6.12 5.16 c-0.12 0 -0.24 -0.04 -0.36 -0.08 s-0.24 -0.08 -0.36 -0.08 l-0.2 -0.12 l-0.28 -0.2 c-0.28 -0.2 -0.44 -0.48 -0.56 -0.76 c-0.84 -2.48 4.24 -7.92 2.96 -9.08 l-0.16 -0.12 c-0.08 -0.04 -0.12 -0.08 -0.2 -0.08 c-0.92 0 -1.64 0.24 -2.24 0.64 l-0.24 0.16 c-0.96 0.6 -1.8 2.36 -2.56 3.68 l-0.48 0.92 l-1.16 2.48 l-0.12 0.24 l-0.12 0.4 c-0.12 0.24 -0.24 0.48 -0.32 0.72 c-0.12 0.2 -0.2 0.44 -0.28 0.64 l-0.2 0.4 c-0.08 0.12 -0.16 0.2 -0.28 0.28 s-0.24 0.12 -0.36 0.12 l-0.4 0 c-0.16 -0.04 -0.32 -0.08 -0.48 -0.08 l-0.6 -0.12 c-0.2 -0.08 -0.28 -0.28 -0.24 -0.52 c0.04 -0.12 0.08 -0.24 0.16 -0.32 l0.44 -1.04 l0.2 -0.4 l0.36 -0.68 l0.24 -0.48 c0.12 -0.24 0.2 -0.48 0.36 -0.68 c1.12 -2.52 3.28 -5.36 2.4 -6.16 l-0.16 -0.12 c-0.08 -0.04 -0.12 -0.08 -0.2 -0.08 c-0.92 0 -1.64 0.24 -2.24 0.64 l-0.24 0.16 c-0.2 0.12 -0.36 0.24 -0.52 0.4 c-0.16 0.12 -0.32 0.28 -0.48 0.48 c-0.2 0.16 -0.36 0.36 -0.52 0.6 l-0.36 0.44 c-0.2 0.28 -0.4 0.52 -0.56 0.8 l-0.6 1.04 l-0.68 1.36 l-0.24 0.4 l-0.28 0.68 c-0.08 0.16 -0.2 0.32 -0.28 0.52 c-0.12 0.2 -0.2 0.4 -0.28 0.6 l-0.12 0.4 c-0.12 0.24 -0.24 0.48 -0.32 0.72 c-0.12 0.2 -0.2 0.44 -0.28 0.64 l-0.2 0.4 c-0.08 0.12 -0.16 0.2 -0.28 0.28 s-0.24 0.12 -0.36 0.12 l-0.4 0 c-0.16 -0.04 -0.32 -0.08 -0.48 -0.08 l-0.6 -0.12 c-0.2 -0.08 -0.28 -0.28 -0.24 -0.52 c0.04 -0.12 0.08 -0.24 0.16 -0.32 l0.44 -1.04 l0.2 -0.4 l0.36 -0.68 l0.24 -0.48 c0.12 -0.24 0.2 -0.48 0.32 -0.68 l0.2 -0.4 c0.12 -0.2 0.24 -0.36 0.32 -0.56 l0.48 -0.92 c0.12 -0.16 0.2 -0.36 0.28 -0.56 l0.12 -0.28 l0.36 -0.6 l0.08 -0.16 c0.08 -0.28 0.24 -0.52 0.4 -0.72 c0.04 -0.12 0.12 -0.2 0.16 -0.28 c0.16 -0.32 0.32 -0.64 0.52 -0.92 l0.6 -1.04 l0.48 -0.72 c0 -0.08 0.04 -0.12 0.08 -0.16 c0.04 -0.08 0.16 -0.12 0.24 -0.16 c0.16 -0.04 0.28 -0.12 0.44 -0.12 l0.16 -0.04 l0.4 0 c0.2 0 0.36 0.08 0.56 0.12 c0.16 0.04 0.28 0.16 0.36 0.24 c0 0.12 0.12 0.2 0.04 0.28 c0.04 0.12 0 0.2 -0.08 0.28 l-0.08 0.2 l-0.48 0.76 c-0.04 0 0 0 0 0.04 l0.04 -0.04 c0.24 -0.2 0.48 -0.36 0.72 -0.52 c0.28 -0.16 0.56 -0.32 0.84 -0.44 c0.4 -0.2 1.56 -0.48 2 -0.4 c1.48 0.28 2 1 2 1.92 c0.48 -0.4 1.28 -0.96 1.44 -1.08 c1 -0.6 2 -0.84 2.44 -0.88 c0.16 0 0.24 0 0.4 0.04 c3.04 0.6 1.96 2.96 0.84 5.24 l-0.48 0.92 c-0.12 0.2 -0.2 0.44 -0.32 0.68 l-0.2 0.32 l-0.24 0.72 c-0.08 0.16 -0.12 0.32 -0.16 0.48 c0 0.08 -0.04 0.12 -0.04 0.2 c0 0.16 -0.04 0.32 -0.04 0.48 s0.08 0.32 0.08 0.44 l0.16 0.24 c0.04 0.04 0.08 0.12 0.16 0.16 s0.16 0.08 0.24 0.08 c0.12 0 0.28 0 0.4 -0.04 c0.92 -0.24 3.12 -3.08 3.92 -4.04 l1 -1.36 c0.04 -0.08 0.16 -0.16 0.2 -0.28 c0.04 -0.04 0.08 -0.04 0.08 0 c0.04 0.04 0.08 0.04 0.12 0.04 s0.08 0 0.12 0.04 z M47.92 38.56 c-0.64 -1.92 1.28 -5.2 2.72 -8 l0.12 -0.2 c0.08 -0.16 0.24 -0.32 0.32 -0.52 l0.36 -0.56 c0.08 -0.2 0.24 -0.4 0.36 -0.56 c0.08 -0.08 0.16 -0.2 0.28 -0.24 c0.08 -0.08 0.24 -0.12 0.36 -0.12 c0.12 -0.04 0.28 0 0.4 -0.04 c0.08 -0.04 0.16 -0.04 0.24 0 c0.16 0 0.36 0.08 0.52 0.12 c0.2 0.04 0.4 0.12 0.52 0.36 c0 0.08 0 0.12 -0.04 0.16 l-0.44 0.88 l-0.32 0.48 l-0.08 0.16 l-0.24 0.44 l-0.2 0.36 l-0.4 0.68 c-0.12 0.28 -0.28 0.56 -0.44 0.8 c-0.2 0.32 -0.36 0.68 -0.52 1 l-0.48 0.92 c-0.12 0.2 -0.2 0.44 -0.32 0.68 l-0.2 0.32 l-0.24 0.72 c-0.08 0.16 -0.12 0.32 -0.16 0.48 c0 0.08 -0.04 0.12 -0.04 0.2 c0 0.16 -0.04 0.32 -0.04 0.48 s0.08 0.32 0.08 0.44 l0.16 0.24 c0.04 0.04 0.08 0.12 0.16 0.16 s0.16 0.08 0.24 0.08 c0.12 0 0.28 0 0.4 -0.04 c0.08 0 0.16 -0.04 0.24 -0.08 c0.2 -0.08 0.36 -0.24 0.52 -0.36 l0.44 -0.44 c0.24 -0.32 0.52 -0.6 0.76 -0.96 l0.36 -0.44 c0.12 -0.16 0.24 -0.24 0.32 -0.4 l0.16 -0.2 c0.2 -0.2 0.32 -0.44 0.52 -0.64 l0.36 -0.52 l0.44 -0.6 l0.56 -0.76 c0.04 -0.08 0.16 -0.16 0.2 -0.28 c0.04 -0.04 0.08 -0.04 0.08 0 c0.04 0.04 0.08 0.04 0.12 0.04 s0.08 0 0.12 0.04 l0.04 0.04 c0 0.08 0 0.16 -0.04 0.24 c-0.04 0.16 -0.12 0.28 -0.2 0.4 c-0.2 0.24 -0.36 0.48 -0.52 0.72 l-0.56 0.76 l-0.52 0.76 l-0.48 0.64 l-0.12 0.2 l-0.6 0.68 l-0.68 0.72 c-0.12 0.16 -0.28 0.32 -0.44 0.44 c-0.28 0.28 -0.52 0.52 -0.84 0.76 l-0.16 0.08 l-0.44 0.24 c-0.2 0.12 -0.4 0.2 -0.6 0.24 c-0.12 0 -0.24 0.04 -0.36 0.04 s-0.24 -0.04 -0.36 -0.08 s-0.24 -0.08 -0.36 -0.08 l-0.2 -0.12 l-0.28 -0.2 c-0.28 -0.2 -0.44 -0.48 -0.56 -0.76 z M54.2 26.759999999999998 l-0.12 0 c-0.04 0 -0.12 0.04 -0.2 0 s-0.32 -0.16 -0.36 -0.24 l-0.04 0 c-0.16 -0.12 -0.2 -0.28 -0.28 -0.48 c0 -0.04 -0.04 -0.08 0 -0.12 l0 -0.16 c0 -0.12 0.04 -0.2 0.12 -0.24 c0.04 -0.12 0.12 -0.16 0.2 -0.24 l0.16 -0.2 c0.12 -0.08 0.24 -0.16 0.4 -0.08 l0.08 0 c0.04 -0.04 0.12 0 0.2 0.04 c0.12 -0.04 0.2 0.04 0.32 0.08 c0.12 0.08 0.2 0.16 0.28 0.28 c0 0.08 0.08 0.12 0.08 0.24 c0.04 0.08 0.08 0.16 0.08 0.24 s0 0.12 -0.04 0.2 c-0.04 0.04 -0.04 0.08 -0.04 0.12 c-0.04 0.12 -0.12 0.2 -0.24 0.24 l-0.16 0.12 l-0.2 0.12 c-0.08 0.08 -0.16 0.12 -0.24 0.08 z M69.36 32.84 l0.04 0.04 c0 0.08 0 0.16 -0.04 0.24 c-0.04 0.16 -0.12 0.28 -0.2 0.4 c-0.2 0.24 -0.6 0.88 -0.76 1.12 c-2 2.32 -3.8 5.16 -6.12 5.16 c-0.12 0 -0.24 -0.04 -0.36 -0.08 s-0.24 -0.08 -0.36 -0.08 l-0.2 -0.12 l-0.28 -0.2 c-0.28 -0.2 -0.44 -0.48 -0.56 -0.76 c-0.84 -2.48 4.24 -7.92 2.96 -9.08 l-0.16 -0.12 c-0.08 -0.04 -0.12 -0.08 -0.2 -0.08 c-0.92 0 -1.64 0.24 -2.24 0.64 l-0.24 0.16 c-0.2 0.12 -0.36 0.24 -0.52 0.4 c-0.16 0.12 -0.32 0.28 -0.48 0.48 c-0.2 0.16 -0.36 0.36 -0.52 0.6 l-0.36 0.44 c-0.2 0.28 -0.4 0.52 -0.56 0.8 l-0.6 1.04 l-0.68 1.36 l-0.24 0.4 l-0.28 0.68 c-0.08 0.16 -0.2 0.32 -0.28 0.52 c-0.12 0.2 -0.2 0.4 -0.28 0.6 l-0.12 0.4 c-0.12 0.24 -0.24 0.48 -0.32 0.72 c-0.12 0.2 -0.2 0.44 -0.28 0.64 l-0.2 0.4 c-0.08 0.12 -0.16 0.2 -0.28 0.28 s-0.24 0.12 -0.36 0.12 l-0.4 0 c-0.16 -0.04 -0.32 -0.08 -0.48 -0.08 l-0.6 -0.12 c-0.2 -0.08 -0.28 -0.28 -0.24 -0.52 c0.04 -0.12 0.08 -0.24 0.16 -0.32 l0.44 -1.04 l0.2 -0.4 l0.36 -0.68 l0.24 -0.48 c0.12 -0.24 0.2 -0.48 0.32 -0.68 l0.2 -0.4 c0.12 -0.2 0.24 -0.36 0.32 -0.56 l0.48 -0.92 c0.12 -0.16 0.2 -0.36 0.28 -0.56 l0.12 -0.28 l0.36 -0.6 l0.08 -0.16 c0.08 -0.28 0.24 -0.52 0.4 -0.72 c0.04 -0.12 0.12 -0.2 0.16 -0.28 c0.16 -0.32 0.32 -0.64 0.52 -0.92 l0.6 -1.04 l0.48 -0.72 c0 -0.08 0.04 -0.12 0.08 -0.16 c0.04 -0.08 0.16 -0.12 0.24 -0.16 c0.16 -0.04 0.28 -0.12 0.44 -0.12 l0.16 -0.04 l0.4 0 c0.2 0 0.36 0.08 0.56 0.12 c0.16 0.04 0.28 0.16 0.36 0.24 c0 0.12 0.12 0.2 0.04 0.28 c0.04 0.12 0 0.2 -0.08 0.28 l-0.08 0.2 l-0.48 0.76 c-0.04 0 0 0 0 0.04 l0.04 -0.04 c0.24 -0.2 0.48 -0.36 0.72 -0.52 c0.28 -0.16 0.56 -0.32 0.84 -0.44 c0.24 -0.12 0.6 -0.2 0.84 -0.24 c0.16 0 0.4 -0.16 0.6 -0.16 l0.16 -0.04 c0.16 0 0.24 0 0.4 0.04 c3.04 0.6 1.96 2.96 0.84 5.24 l-0.48 0.92 c-0.12 0.2 -0.2 0.44 -0.32 0.68 l-0.2 0.32 l-0.24 0.72 c-0.08 0.16 -0.12 0.32 -0.16 0.48 c0 0.08 -0.04 0.12 -0.04 0.2 c0 0.16 -0.04 0.32 -0.04 0.48 s0.08 0.32 0.08 0.44 l0.16 0.24 c0.04 0.04 0.08 0.12 0.16 0.16 s0.16 0.08 0.24 0.08 c0.12 0 0.28 0 0.4 -0.04 c0.92 -0.24 3.12 -3.08 3.92 -4.04 l1 -1.36 c0.04 -0.08 0.16 -0.16 0.2 -0.28 c0.04 -0.04 0.08 -0.04 0.08 0 c0.04 0.04 0.08 0.04 0.12 0.04 s0.08 0 0.12 0.04 z M75.12 28.64 l0.16 0 c0.28 -0.04 0.52 0.08 0.76 0.16 s0.44 0.2 0.6 0.4 c0.12 0.12 0.2 0.28 0.24 0.44 l0.08 0.48 l0 0.36 c0 0.04 0.04 0.08 0.04 0.12 s0.04 0.04 0.08 0.04 c0 -0.04 0.04 -0.04 0.04 -0.08 l0.12 -0.2 l0.32 -0.52 c0.08 -0.2 0.24 -0.36 0.36 -0.56 c0.08 -0.2 0.24 -0.4 0.36 -0.56 c0.08 -0.08 0.16 -0.2 0.28 -0.24 c0.08 -0.08 0.24 -0.12 0.36 -0.12 c0.12 -0.04 0.24 0 0.4 -0.04 c0.08 0 0.16 -0.04 0.24 0 c0.16 0 0.36 0.08 0.52 0.12 c0.2 0.04 0.4 0.12 0.52 0.36 c0 0.08 0 0.12 -0.04 0.2 c-0.16 0.24 -0.32 0.56 -0.44 0.84 l-0.32 0.48 l-0.08 0.16 l-0.24 0.44 l-0.2 0.36 c-0.12 0.24 -0.24 0.48 -0.4 0.68 c-0.12 0.28 -0.28 0.56 -0.44 0.8 l-0.52 1 l-0.48 0.92 c-0.12 0.2 -0.2 0.44 -0.32 0.68 l-0.2 0.32 l-0.24 0.72 c-0.08 0.16 -0.12 0.32 -0.16 0.48 c0 0.08 -0.04 0.16 -0.04 0.2 c0 0.16 -0.04 0.32 -0.04 0.52 c0 0.12 0.04 0.28 0.08 0.4 l0.16 0.24 c0.04 0.08 0.08 0.12 0.16 0.16 s0.12 0.08 0.24 0.08 s0.28 0 0.4 -0.04 c0.08 0 0.16 -0.04 0.24 -0.08 c0.2 -0.08 0.36 -0.24 0.52 -0.36 c0.12 -0.16 0.28 -0.28 0.44 -0.44 c0.24 -0.32 0.52 -0.6 0.76 -0.96 l0.36 -0.44 c0.08 -0.16 0.2 -0.24 0.32 -0.4 l0.16 -0.2 c0.2 -0.2 0.32 -0.44 0.52 -0.64 l0.36 -0.52 l0.44 -0.6 l0.56 -0.76 c0.04 -0.08 0.16 -0.16 0.2 -0.28 c0 0 0.04 -0.04 0.08 0 s0.08 0.04 0.12 0.04 s0.08 0 0.12 0.04 l0.04 0.04 c0 0.08 0 0.16 -0.04 0.24 c-0.04 0.16 -0.12 0.28 -0.24 0.4 c-0.16 0.24 -0.32 0.48 -0.52 0.72 c-0.16 0.24 -0.32 0.52 -0.52 0.76 l-0.52 0.76 l-0.48 0.64 l-0.12 0.2 l-0.6 0.68 l-0.68 0.72 c-0.16 0.16 -0.28 0.32 -0.44 0.44 c-0.28 0.28 -0.52 0.52 -0.84 0.76 l-0.16 0.08 l-0.44 0.24 c-0.2 0.12 -0.4 0.2 -0.6 0.24 c-0.12 0 -0.24 0.04 -0.36 0.04 s-0.24 -0.04 -0.36 -0.08 s-0.24 -0.08 -0.36 -0.08 l-0.2 -0.12 c-0.12 -0.04 -0.2 -0.12 -0.28 -0.2 c-0.28 -0.2 -0.44 -0.48 -0.56 -0.76 c-0.16 -0.28 -0.2 -0.56 -0.16 -0.88 l0 -0.52 c0.04 -0.08 0.08 -0.08 0.04 -0.16 l-0.08 0.08 l-0.52 0.56 c-0.24 0.32 -0.56 0.6 -0.84 0.92 c-0.12 0.08 -0.24 0.2 -0.4 0.28 c-0.08 0.08 -0.16 0.16 -0.24 0.2 c-0.24 0.16 -0.48 0.32 -0.76 0.44 c-0.28 0.16 -0.64 0.32 -0.96 0.44 c-0.12 0.04 -0.2 0.04 -0.32 0.04 l-0.32 0 c-0.24 0 -0.48 -0.04 -0.68 -0.12 c-0.04 0 -0.12 0 -0.16 -0.04 c-0.2 -0.04 -0.36 -0.16 -0.52 -0.28 c-0.2 -0.12 -0.36 -0.32 -0.52 -0.56 l-0.12 -0.24 c-0.08 -0.2 -0.16 -0.4 -0.2 -0.6 c-0.04 -0.16 -0.08 -0.32 -0.08 -0.44 c-0.04 -0.12 0 -0.24 0 -0.36 c-0.04 -0.08 0 -0.16 -0.04 -0.24 c0.04 -0.12 0 -0.24 0.04 -0.36 l0 -0.08 c0 -0.2 0.08 -0.4 0.08 -0.6 l0.16 -0.6 c0 -0.08 0.04 -0.2 0.08 -0.32 c0.08 -0.24 0.16 -0.48 0.28 -0.72 l0.16 -0.4 l0.24 -0.48 c0.12 -0.12 0.12 -0.28 0.24 -0.4 l0.04 -0.04 c0 -0.12 0.12 -0.2 0.16 -0.32 l0.24 -0.36 l0.52 -0.72 l0.44 -0.52 l0.32 -0.36 c0.08 -0.12 0.2 -0.2 0.32 -0.28 c0.16 -0.2 0.4 -0.36 0.56 -0.52 l0.56 -0.4 c0.2 -0.08 0.32 -0.2 0.52 -0.28 l0.28 -0.12 c0.2 -0.12 0.44 -0.2 0.64 -0.28 s0.4 -0.12 0.56 -0.2 l0.24 0 c0.08 -0.04 0.2 -0.04 0.32 -0.04 c0.2 -0.04 0.4 -0.04 0.6 -0.04 z M76.44 31.28 l0 -0.72 c0 -0.16 -0.04 -0.28 -0.04 -0.44 c-0.08 -0.2 -0.16 -0.36 -0.28 -0.52 c-0.08 -0.08 -0.16 -0.16 -0.24 -0.2 c-0.04 0 -0.12 0 -0.16 -0.04 c-0.08 0 -0.16 -0.04 -0.24 -0.04 c-0.2 -0.04 -0.36 0 -0.52 0.04 c-0.2 0.04 -0.4 0.12 -0.64 0.24 c-0.32 0.16 -0.64 0.44 -0.88 0.68 l-0.28 0.32 l-0.72 0.76 s-0.04 0 -0.04 0.04 l-0.36 0.44 c-0.16 0.16 -0.28 0.36 -0.44 0.56 c-0.2 0.24 -0.4 0.56 -0.6 0.84 l-0.28 0.48 c-0.16 0.2 -0.28 0.4 -0.4 0.64 c-0.16 0.28 -0.28 0.56 -0.4 0.84 c-0.04 0.16 -0.12 0.32 -0.16 0.52 l-0.12 0.4 c0 0.12 -0.08 0.24 -0.04 0.4 c-0.04 0.12 -0.08 0.24 -0.08 0.36 c0 0.24 0 0.48 0.04 0.76 c0.04 0.2 0.08 0.4 0.16 0.6 c0.08 0.24 0.24 0.44 0.44 0.6 c0.16 0.08 0.32 0.16 0.48 0.2 c0.2 0 0.36 0 0.56 -0.08 c0 -0.04 0.04 0 0.08 -0.04 c0.04 0 0.12 0 0.16 -0.04 c0.28 -0.2 0.56 -0.32 0.84 -0.56 c0.24 -0.2 0.52 -0.36 0.72 -0.6 l0.36 -0.4 l0.48 -0.64 c0.08 -0.12 0.16 -0.28 0.28 -0.4 l0.36 -0.56 l0.44 -0.76 l0.36 -0.8 l0.36 -0.68 c0 -0.04 0 -0.08 0.04 -0.12 c0.08 -0.12 0.16 -0.24 0.2 -0.36 c0.16 -0.24 0.28 -0.48 0.4 -0.76 c0.08 -0.16 0.08 -0.32 0.16 -0.44 c-0.04 -0.2 0.04 -0.36 0 -0.52 z M92.32 41.2 l-0.52 0 l-0.6 -0.08 l-1.04 -0.24 c-2 -0.68 -3.56 -1.76 -4.6 -3.68 c-0.16 -0.24 -0.28 -0.52 -0.4 -0.76 l-0.16 -0.4 c-0.08 -0.12 -0.12 -0.24 -0.16 -0.36 c-0.08 -0.28 -0.2 -0.56 -0.24 -0.84 c-0.04 -0.12 -0.08 -0.24 -0.08 -0.36 c0 -0.04 0 -0.08 -0.04 -0.12 c0 -0.16 -0.04 -0.28 -0.04 -0.4 c-0.04 -0.12 -0.04 -0.24 -0.04 -0.32 c-0.04 -0.08 -0.04 -0.2 -0.04 -0.28 l0 -0.16 c0 -0.04 0 -0.08 -0.04 -0.16 l0 -0.28 c0 -0.08 0 -0.16 -0.04 -0.24 c0 -0.08 0.04 -0.12 0.04 -0.16 c-0.04 -0.08 0 -0.12 0 -0.16 c-0.04 -0.08 -0.04 -0.12 0 -0.2 l0 -0.44 c0.04 -0.16 0 -0.28 0.04 -0.4 c0 -0.16 0.16 -0.8 0.2 -0.88 c0.04 -0.2 0.08 -0.44 0.2 -0.64 c0.08 -0.36 0.24 -0.68 0.4 -1 c0.08 -0.2 0.16 -0.4 0.28 -0.6 c0.68 -1.24 1.68 -2.28 3.04 -2.88 c0.16 -0.08 0.36 -0.16 0.52 -0.2 l0.64 -0.24 c0.08 0 0.12 -0.04 0.2 -0.04 c0.12 0 0.2 -0.04 0.32 -0.08 c0.16 0 0.32 -0.04 0.44 -0.04 c0.08 0 0.12 -0.04 0.16 -0.04 s0.12 0 0.16 -0.04 l0.04 0 c0.24 0 0.48 -0.04 0.72 0 l0.2 0 c0.08 0 0.16 0.04 0.24 0.04 c0.2 0 0.44 0.08 0.68 0.12 c0.04 0 0.12 0.04 0.16 0.04 l0.64 0.32 l0.04 0 c0.04 0 0.12 0.04 0.16 0.08 l0.44 0.24 c0.16 0.08 0.32 0.16 0.44 0.28 l0.36 0.28 l0.4 0.36 c0.16 0.2 0.32 0.4 0.44 0.6 l0.2 0.28 l0.2 0.36 c0.08 0.16 0.16 0.32 0.2 0.48 l0.2 0.64 c0.04 0.12 0.08 0.28 0.08 0.44 l0.08 0.4 l0 0.08 c0 0.24 0.04 0.44 0 0.64 c0 0.16 0 0.28 -0.04 0.4 c0 0.08 0 0.16 -0.04 0.28 c0 0.08 0 0.16 -0.04 0.24 l0 0.04 c0 0.16 -0.04 0.28 -0.08 0.4 c0 0.12 -0.04 0.24 -0.04 0.32 l-0.16 0.56 l-0.12 0.24 c-0.12 0.24 -0.2 0.48 -0.36 0.68 l-0.28 0.44 c-0.08 0.08 -0.16 0.16 -0.2 0.24 c-0.16 0.16 -0.28 0.32 -0.44 0.44 l-0.48 0.36 l-0.24 0.12 l-0.48 0.12 c-0.16 0.04 -0.32 0.04 -0.48 0.04 c-0.28 -0.04 -0.6 -0.08 -0.88 -0.24 c-0.16 -0.04 -0.32 -0.16 -0.4 -0.32 c0 0 -0.04 0 -0.04 -0.04 c-0.08 -0.12 0 -0.2 0.12 -0.2 c0.16 0 0.28 -0.04 0.44 -0.04 s0.36 -0.04 0.52 -0.12 l0.8 -0.48 c0.24 -0.16 0.4 -0.36 0.56 -0.56 c0.12 -0.12 0.2 -0.24 0.28 -0.36 l0.32 -0.56 c0.08 -0.12 0.16 -0.28 0.2 -0.44 c0.12 -0.16 0.16 -0.36 0.2 -0.52 c0.08 -0.2 0.12 -0.44 0.16 -0.64 c0.04 -0.28 0.04 -0.56 0 -0.84 c0 -0.2 -0.04 -0.44 -0.08 -0.64 c-0.04 -0.28 -0.12 -0.52 -0.2 -0.8 c-0.12 -0.32 -0.24 -0.64 -0.44 -0.96 c-0.08 -0.16 -0.16 -0.32 -0.28 -0.48 c-0.08 -0.16 -0.2 -0.28 -0.32 -0.44 c-0.08 -0.12 -0.2 -0.2 -0.28 -0.28 c-0.2 -0.16 -0.4 -0.24 -0.6 -0.36 c-0.28 -0.16 -0.56 -0.28 -0.88 -0.36 c-0.2 -0.04 -0.36 -0.12 -0.56 -0.2 c-0.04 0 -0.12 0 -0.16 -0.04 c-0.08 -0.04 -0.12 -0.04 -0.2 -0.04 l-0.16 0 c-0.08 -0.04 -0.16 0 -0.24 0 l-0.24 0 l-0.44 0.08 l-0.24 0 c-0.2 0.04 -0.36 0.08 -0.56 0.16 c-0.12 0 -0.2 0.04 -0.32 0.08 s-0.24 0.08 -0.36 0.16 c-0.08 0 -0.16 0.04 -0.2 0.04 c-0.12 0.04 -0.2 0.08 -0.28 0.16 c-0.16 0.08 -0.32 0.12 -0.44 0.24 c-0.16 0.08 -0.32 0.16 -0.48 0.28 l-0.32 0.28 c-0.16 0.12 -0.32 0.24 -0.44 0.4 c-0.24 0.2 -0.44 0.48 -0.64 0.72 c-0.12 0.2 -0.28 0.4 -0.36 0.64 l-0.32 0.64 l-0.16 0.32 c-0.04 0.16 -0.08 0.28 -0.08 0.4 c-0.04 0.04 -0.04 0.12 -0.04 0.16 c-0.04 0.12 -0.08 0.28 -0.08 0.4 c0 0.04 -0.04 0.08 -0.04 0.08 c0 0.16 -0.04 0.32 -0.04 0.48 c-0.04 0.16 -0.04 0.32 -0.04 0.48 c-0.04 0.12 -0.04 0.24 -0.04 0.4 c0 0.04 -0.04 0.08 0 0.16 c0.04 0.04 0.04 0.08 0 0.16 c-0.04 0.16 0 0.32 0 0.48 c-0.04 0.2 0 0.44 0.04 0.64 c0 0.2 0 0.36 0.04 0.52 l0.12 0.56 c0 0.16 0.08 0.28 0.08 0.4 c0 0.08 0.04 0.16 0.04 0.24 c0.04 0.12 0.08 0.2 0.08 0.32 c0 0.04 0.04 0.12 0.08 0.16 c0.08 0.28 0.2 0.6 0.32 0.88 l0.36 0.68 c0.2 0.32 0.4 0.68 0.64 0.96 l0.36 0.44 c0.16 0.16 0.32 0.36 0.52 0.52 l0.16 0.16 c0.24 0.12 0.44 0.28 0.64 0.4 l0.48 0.24 l0.72 0.32 c0.24 0.08 0.52 0.16 0.8 0.2 l0.36 0.08 c0.36 0.04 0.72 0.04 1.04 0.04 c0.28 0 0.52 0 0.76 -0.04 c0.2 0 1.88 -0.4 2.2 -0.68 c0.2 -0.08 0.4 -0.16 0.56 -0.32 c0.12 -0.04 0.24 -0.12 0.32 -0.2 l0.2 -0.12 c0.28 -0.16 0.56 -0.4 0.8 -0.64 l0.44 -0.52 l0.4 -0.44 l0.48 -0.68 l0.4 -0.68 c0.04 -0.16 0.12 -0.32 0.2 -0.48 c0.04 -0.04 0.04 -0.12 0.04 -0.16 c0.08 -0.24 0.16 -0.44 0.2 -0.68 l0.12 -0.48 l0.08 -0.4 c0.04 -0.16 0.04 -0.28 0.04 -0.4 l0 -1.52 c-0.08 -0.24 0 -0.52 -0.08 -0.76 c0.04 -0.16 -0.04 -0.28 0 -0.4 c0 -0.08 -0.04 -0.12 -0.04 -0.16 s0 -0.12 -0.04 -0.16 c0.04 -0.12 0 -0.28 -0.04 -0.4 l0 -0.52 c-0.04 -0.12 -0.04 -0.24 -0.04 -0.36 s0 -0.28 -0.04 -0.44 c0 -0.08 -0.04 -0.16 -0.04 -0.24 c-0.04 -0.2 0 -0.36 -0.08 -0.56 l0 -0.24 l-0.08 -0.36 c0 -0.16 0 -0.36 -0.04 -0.56 c0 -0.2 -0.04 -0.36 -0.04 -0.56 l-0.08 -0.64 l0 -0.36 c-0.04 -0.12 0 -0.28 -0.04 -0.4 c-0.04 -0.16 0 -0.32 -0.04 -0.44 c-0.04 -0.32 0 -0.6 0 -0.92 l0 -0.52 c0.04 -0.08 0.04 -0.2 0.04 -0.28 s0.04 -0.12 0.04 -0.2 c0.04 -0.12 0 -0.24 0.08 -0.36 c0 -0.08 0.04 -0.2 0.04 -0.32 c0 -0.08 0.04 -0.16 0.08 -0.24 l0.12 -0.4 c0 -0.08 0.04 -0.12 0.04 -0.16 c0.12 -0.28 0.28 -0.56 0.44 -0.84 c0.12 -0.24 0.24 -0.44 0.4 -0.64 l0.36 -0.4 l0.16 -0.2 c0.08 -0.04 0.16 -0.08 0.24 -0.16 c0.16 -0.16 0.36 -0.28 0.56 -0.44 s0.4 -0.32 0.64 -0.44 c0.2 -0.12 0.4 -0.28 0.64 -0.36 c0.12 0 0.2 -0.04 0.32 -0.08 c0.08 -0.04 0.16 -0.08 0.28 -0.08 c0.16 -0.04 0.36 -0.08 0.52 -0.08 c0.16 -0.04 0.28 0 0.4 0 c0.04 0 0.08 0 0.12 -0.04 l0.2 0 c0 0.04 0.04 0.04 0.08 0.04 c0.12 -0.04 0.24 0 0.32 0.04 l0.36 0.12 c0.04 0.04 0.12 0.08 0.2 0.08 c0.2 0.12 0.4 0.2 0.56 0.36 l0.2 0.12 c0.2 0.2 0.4 0.36 0.52 0.6 c0.08 0.12 0.16 0.2 0.2 0.32 l0 0.04 c0.08 0.04 0.08 0.12 0.12 0.2 l0.12 0.24 c0 0.04 0.04 0.12 0.08 0.2 c0.04 0.04 0.04 0.12 0.04 0.16 c0 0.08 0.04 0.16 0.08 0.2 c0.04 0.16 0.08 0.36 0.08 0.52 c0.04 0.04 0.04 0.12 0.04 0.2 c0.04 0.04 0.04 0.12 0.04 0.16 c-0.04 0.08 0 0.16 0 0.2 c0.04 0.08 -0.04 0.2 0 0.28 c0 0.08 -0.04 0.16 -0.04 0.24 c0 0.16 -0.08 0.32 -0.08 0.48 c0 0.04 0 0.08 -0.04 0.08 c-0.08 0.36 -0.2 0.68 -0.36 1 l-0.08 0.32 c0 0.16 -0.04 0.28 -0.08 0.4 l-0.16 0.52 l-0.24 0.64 c-0.12 0.2 -0.24 0.4 -0.4 0.6 c-0.12 0.16 -0.28 0.32 -0.48 0.4 c-0.12 0.08 -0.2 0.08 -0.28 0.12 c-0.04 0.04 -0.04 0.04 -0.08 0.04 s-0.12 -0.04 -0.2 0 c-0.04 0.04 -0.12 -0.04 -0.16 -0.04 c-0.24 -0.08 -0.4 -0.2 -0.52 -0.4 c-0.08 -0.2 -0.08 -0.4 -0.04 -0.6 s0.08 -0.36 0.2 -0.52 l0.24 -0.4 c0.2 -0.28 0.44 -0.52 0.68 -0.76 l0.2 -0.16 c0.08 0 0.08 -0.08 0.16 -0.12 c0.04 0 0.08 -0.08 0.12 -0.12 c0.12 -0.12 0.2 -0.24 0.28 -0.36 l0.28 -0.48 c0.08 -0.2 0.12 -0.4 0.2 -0.56 c0 -0.08 -0.04 -0.16 0.04 -0.24 c0 -0.16 0.04 -0.32 0 -0.52 l0 -0.12 c0 -0.2 -0.04 -0.48 -0.08 -0.68 l-0.12 -0.4 l-0.28 -0.56 c-0.04 -0.08 -0.12 -0.16 -0.2 -0.24 l-0.28 -0.32 l-0.28 -0.24 l-0.36 -0.16 c-0.12 -0.04 -0.24 -0.12 -0.4 -0.12 l-0.12 0 c-0.2 0 -0.4 0.04 -0.56 0.12 l-0.36 0.12 l-0.56 0.32 l-0.36 0.32 c-0.24 0.2 -0.4 0.44 -0.6 0.64 c-0.16 0.2 -0.28 0.4 -0.4 0.6 l-0.2 0.44 c-0.08 0.08 -0.12 0.2 -0.12 0.28 c-0.04 0.16 -0.12 0.28 -0.2 0.4 c-0.04 0.28 -0.16 0.56 -0.2 0.84 l-0.12 0.6 c0 0.04 -0.04 0.08 0 0.12 c0 0.04 -0.04 0.04 0 0.08 l0 0.12 c-0.08 0.16 -0.04 0.32 -0.04 0.48 c-0.04 0.32 -0.04 0.68 -0.04 1 c0 0.36 0.04 0.68 0.04 1.04 c0.04 0.08 0 0.2 0.04 0.28 l0 0.04 c0 0.12 0.04 0.28 0.04 0.4 c0 0.08 0.04 0.12 0.04 0.16 s-0.04 0.12 0 0.16 l0 0.04 c0 0.12 0.04 0.24 0.04 0.36 c0.04 0.16 0.04 0.32 0.04 0.48 c0.04 0.12 0.08 0.24 0.08 0.36 c0.04 0.16 0.08 0.32 0.08 0.48 c0 0.04 0 0.08 0.04 0.12 c0 0.16 0 0.32 0.04 0.48 l0.08 0.64 l0 0.4 c0.04 0.08 0 0.2 0.04 0.28 c0.04 0.16 0 0.32 0.04 0.48 c0.04 0.08 0 0.24 0 0.36 c0.08 0.4 0.04 0.84 0.04 1.28 c-0.04 0.28 -0.04 0.56 -0.04 0.84 c0 0.12 0 0.24 -0.04 0.36 c0 0.16 -0.04 0.36 -0.04 0.52 c-0.04 0.16 -0.08 0.32 -0.08 0.44 l-0.12 0.48 c-0.04 0.24 -0.12 0.48 -0.2 0.72 c-0.04 0.2 -0.16 0.4 -0.24 0.6 c-0.08 0.28 -0.24 0.48 -0.36 0.72 c-0.16 0.32 -0.36 0.68 -0.6 0.96 l-0.32 0.4 l-0.48 0.48 c-0.16 0.16 -0.32 0.28 -0.48 0.4 c-0.2 0.16 -0.4 0.32 -0.6 0.44 l-0.44 0.24 c-0.16 0.12 -0.36 0.2 -0.56 0.28 c-1.44 0.68 -3.08 1.2 -4.28 1.08 z M116.47999999999999 32.88 l0 0.16 c0.04 0.08 -0.04 0.16 -0.12 0.24 l0 0.04 s0 0.04 -0.04 0.04 l-0.52 0.68 c-0.64 0.6 -1.56 1.6 -3.24 1.72 c-0.28 0 -0.52 -0.04 -0.76 -0.08 c0 0 -0.04 0.04 -0.04 0.08 c-0.08 0.16 -0.2 0.28 -0.28 0.4 l-0.52 0.72 l-0.44 0.52 c-0.08 0.12 -0.2 0.2 -0.28 0.36 c-0.08 0.08 -0.16 0.16 -0.24 0.2 s-0.12 0.12 -0.16 0.16 l-0.52 0.44 c-0.2 0.16 -0.4 0.32 -0.6 0.44 c-0.16 0.08 -0.32 0.2 -0.52 0.28 c-0.08 0 -0.12 0.08 -0.16 0.12 c-0.28 0.08 -0.52 0.2 -0.76 0.32 c-0.2 0.04 -0.4 0.08 -0.56 0.16 c-0.48 0 -0.96 0.08 -1.48 0 c-0.04 0 -0.08 -0.04 -0.2 -0.04 c-0.2 -0.12 -0.4 -0.2 -0.56 -0.32 c-0.44 -0.32 -0.84 -0.72 -1.08 -1.28 l-0.12 -0.36 c0 -0.04 0 -0.08 -0.04 -0.12 c-0.04 -0.12 -0.04 -0.24 -0.04 -0.36 c-0.04 -0.08 -0.08 -0.16 -0.04 -0.24 c0 -0.08 0 -0.12 -0.04 -0.2 l0 -0.16 c0.04 -0.04 0.04 -0.08 0.04 -0.12 c-0.04 -0.12 0 -0.2 0 -0.28 s0 -0.2 0.04 -0.28 c0.04 -0.16 0.04 -0.32 0.12 -0.48 c0 -0.2 0.12 -0.4 0.12 -0.6 l0.16 -0.4 c0.08 -0.2 0.16 -0.4 0.28 -0.6 l0.24 -0.52 c0 -0.04 0.08 -0.08 0.08 -0.16 c0.04 -0.12 0.16 -0.2 0.2 -0.32 l0.16 -0.28 c0.08 -0.16 0.4 -0.8 0.52 -0.92 c0.16 -0.24 0.32 -0.48 0.52 -0.72 c0.12 -0.16 0.28 -0.32 0.4 -0.52 c0.12 -0.12 0.24 -0.2 0.32 -0.36 c0.08 -0.08 0.16 -0.16 0.24 -0.2 l0.16 -0.16 l0.48 -0.44 l0.64 -0.44 c0.16 -0.08 0.32 -0.2 0.52 -0.28 c0.04 0 0.12 -0.08 0.16 -0.08 l0.76 -0.32 c0.2 -0.08 0.4 -0.12 0.56 -0.2 c0.08 0 0.16 0.04 0.2 -0.04 c0.04 0.04 0.08 0 0.12 0 l0.24 0 c0.2 0 0.84 0.04 1.04 0.12 c0.24 0.08 0.52 0.2 0.72 0.32 l0 0.04 c0.4 0.32 0.76 0.68 0.96 1.2 c0.08 0.12 0.12 0.24 0.12 0.36 c0 0.04 0.04 0.08 0.04 0.16 c0.04 0.08 0.08 0.2 0.08 0.32 c0 0.08 0.04 0.16 0.04 0.24 s0 0.16 0.04 0.2 c0 0.04 0 0.12 -0.04 0.16 l0 0.12 c0.04 0.12 0 0.2 0 0.28 c0 0.12 -0.04 0.2 -0.04 0.28 c-0.2 0.88 -0.48 1.92 -0.96 2.76 c-0.08 0.16 -0.16 0.36 -0.28 0.52 c0.16 0.08 0.36 0.16 0.56 0.16 l0.04 0 c0.24 0 0.28 0 0.48 -0.08 c0.8 -0.24 1.8 -1.36 2.44 -1.92 c0.2 -0.16 0.4 -0.44 0.6 -0.56 l0.08 0 c0.08 0 0.08 0.04 0.12 0.04 c0.04 0.04 0.04 0.04 0.04 0.08 z M111.36 33.12 c0.12 0.4 0.12 1.24 0.32 1.6 c0.12 -0.24 0.52 -0.88 0.64 -1.24 c0.16 -0.52 0.4 -1.6 0.4 -1.68 c0.04 -0.64 0 -1.32 -0.32 -1.88 c0 -0.04 0 -0.04 -0.04 -0.08 c-0.2 -0.32 -0.52 -0.52 -0.84 -0.72 c-0.2 -0.12 -0.84 -0.2 -1.08 -0.16 l-0.36 0.12 l-0.32 0.2 c-0.16 0.16 -0.32 0.28 -0.48 0.48 l-0.24 0.24 l-0.72 0.76 c-0.16 0.16 -0.24 0.32 -0.4 0.48 l-0.32 0.36 c-0.08 0.16 -0.2 0.28 -0.28 0.4 c-0.12 0.16 -0.48 0.84 -0.56 1 c-0.16 0.2 -0.28 0.4 -0.4 0.6 s-0.24 0.44 -0.4 0.64 c0 0.04 -0.04 0.08 -0.04 0.16 c-0.2 0.32 -0.36 0.68 -0.48 1.04 l-0.08 0.16 c-0.32 0.88 -0.48 1.84 -0.2 2.72 c0.08 0.32 0.24 0.6 0.44 0.84 c0.2 0.08 0.8 0.12 1 0.12 c0.52 0 1.56 -0.56 2 -1 c0.8 -0.64 1.56 -1.36 2.16 -2.16 c0.16 -0.2 0.32 -0.4 0.44 -0.6 c-0.28 -0.12 -0.64 -0.48 -0.88 -0.68 c-0.56 -0.44 -0.6 -1.2 -0.32 -1.8 c0.08 -0.16 0.2 -0.28 0.36 -0.36 s0.32 -0.12 0.44 -0.08 c0.28 0.04 0.48 0.28 0.56 0.52 z M129.2 32.84 l0.04 0.04 c0 0.12 0 0.2 -0.04 0.24 c-0.04 0.16 -0.12 0.32 -0.2 0.4 l-0.52 0.72 l-0.56 0.76 l-0.52 0.76 l-0.48 0.64 l-0.12 0.2 l-0.6 0.68 l-0.68 0.72 c-0.12 0.2 -0.28 0.32 -0.44 0.48 l-0.84 0.76 l-0.16 0.08 l-0.44 0.2 c-0.2 0.16 -0.4 0.2 -0.6 0.24 c-0.12 0 -0.24 0.04 -0.36 0.04 s-0.24 -0.04 -0.36 -0.08 s-0.24 -0.04 -0.36 -0.04 l-0.2 -0.16 l-0.28 -0.2 c-0.28 -0.2 -0.44 -0.44 -0.56 -0.72 c-0.12 -0.44 -0.16 -0.92 -0.08 -1.44 c-0.8 1.08 -2.64 2.64 -4.2 2.64 l-0.44 0 c-0.12 0 -0.24 -0.04 -0.36 -0.08 l-0.04 0 c-0.04 0 -0.08 0 -0.16 -0.04 l-0.16 0 l-0.04 -0.08 c-0.12 0 -0.2 -0.08 -0.24 -0.12 l-0.2 -0.16 c-0.28 -0.2 -0.44 -0.44 -0.56 -0.72 c-0.64 -1.92 1.28 -5.2 2.72 -8.04 l0.12 -0.2 c0.08 -0.16 0.24 -0.28 0.32 -0.52 l0.36 -0.56 c0.08 -0.2 0.24 -0.4 0.36 -0.56 c0.08 -0.04 0.16 -0.2 0.28 -0.24 c0.08 -0.08 0.24 -0.12 0.36 -0.12 l0.4 0 c0.08 -0.04 0.16 -0.04 0.24 0 c0.16 0 0.36 0.04 0.52 0.08 c0.2 0.04 0.4 0.16 0.52 0.36 c0 0.08 0 0.12 -0.04 0.2 l-0.44 0.84 l-0.32 0.48 l-0.08 0.2 l-0.24 0.4 l-0.6 1.08 c-0.12 0.28 -0.28 0.52 -0.44 0.76 l-0.52 1.04 l-0.48 0.88 l-0.32 0.68 l-0.2 0.32 l-0.24 0.72 c-0.08 0.16 -0.12 0.36 -0.16 0.48 c0 0.08 -0.04 0.16 -0.04 0.24 c-0.12 0.52 -0.16 1.68 0.68 1.68 c1.6 0 3.4 -2.04 4.04 -3.28 c0.08 -0.16 0.4 -1.08 0.52 -1.24 l0.24 -0.52 l1.64 -3.2 l0.12 -0.2 c0.08 -0.16 0.24 -0.28 0.32 -0.52 l0.36 -0.56 c0.08 -0.2 0.24 -0.4 0.36 -0.56 c0.08 -0.04 0.16 -0.2 0.28 -0.24 c0.08 -0.08 0.24 -0.12 0.36 -0.12 l0.4 0 c0.08 -0.04 0.16 -0.04 0.24 0 c0.16 0 0.36 0.04 0.52 0.08 c0.2 0.04 0.4 0.16 0.52 0.36 c0 0.08 0 0.12 -0.04 0.2 l-0.44 0.84 l-0.32 0.48 l-0.08 0.2 l-0.24 0.4 l-0.6 1.08 c-0.12 0.28 -0.28 0.52 -0.44 0.76 l-0.52 1.04 l-0.48 0.88 l-0.32 0.68 l-0.2 0.32 l-0.24 0.72 c-0.08 0.16 -0.12 0.36 -0.16 0.48 c0 0.08 -0.04 0.16 -0.04 0.24 c0 0.12 -0.04 0.32 -0.04 0.44 c0 0.2 0.08 0.32 0.08 0.44 l0.16 0.24 c0.04 0.04 0.08 0.12 0.16 0.16 c0.08 0.08 0.16 0.12 0.24 0.12 c0.12 0 0.28 0 0.4 -0.04 c0.08 0 0.16 -0.08 0.24 -0.12 c0.2 -0.08 0.36 -0.2 0.52 -0.36 l0.44 -0.44 c0.24 -0.32 0.52 -0.6 0.76 -0.96 l0.36 -0.44 c0.12 -0.12 0.24 -0.2 0.32 -0.4 l0.16 -0.16 c0.2 -0.24 0.32 -0.48 0.52 -0.64 l0.36 -0.56 l0.44 -0.56 l0.56 -0.76 c0.04 -0.08 0.16 -0.2 0.2 -0.32 l0.08 0 c0.04 0.04 0.08 0.04 0.12 0.04 s0.08 0 0.12 0.04 z M142.4 32.84 l0.04 0.04 c0 0.08 0 0.16 -0.04 0.24 c-0.04 0.16 -0.12 0.28 -0.2 0.4 c-0.2 0.24 -0.6 0.88 -0.76 1.12 c-2 2.32 -3.8 5.16 -6.12 5.16 c-0.12 0 -0.24 -0.04 -0.36 -0.08 s-0.24 -0.08 -0.36 -0.08 l-0.2 -0.12 l-0.28 -0.2 c-0.28 -0.2 -0.44 -0.48 -0.56 -0.76 c-0.84 -2.48 4.24 -7.92 2.96 -9.08 l-0.16 -0.12 c-0.08 -0.04 -0.12 -0.08 -0.2 -0.08 c-0.92 0 -1.64 0.24 -2.24 0.64 l-0.24 0.16 c-0.2 0.12 -0.36 0.24 -0.52 0.4 c-0.16 0.12 -0.32 0.28 -0.48 0.48 c-0.2 0.16 -0.36 0.36 -0.52 0.6 l-0.36 0.44 c-0.2 0.28 -0.4 0.52 -0.56 0.8 l-0.6 1.04 l-0.68 1.36 l-0.24 0.4 l-0.28 0.68 c-0.08 0.16 -0.2 0.32 -0.28 0.52 c-0.12 0.2 -0.2 0.4 -0.28 0.6 l-0.12 0.4 c-0.12 0.24 -0.24 0.48 -0.32 0.72 c-0.12 0.2 -0.2 0.44 -0.28 0.64 l-0.2 0.4 c-0.08 0.12 -0.16 0.2 -0.28 0.28 s-0.24 0.12 -0.36 0.12 l-0.4 0 c-0.16 -0.04 -0.32 -0.08 -0.48 -0.08 l-0.6 -0.12 c-0.2 -0.08 -0.28 -0.28 -0.24 -0.52 c0.04 -0.12 0.08 -0.24 0.16 -0.32 l0.44 -1.04 l0.2 -0.4 l0.36 -0.68 l0.24 -0.48 c0.12 -0.24 0.2 -0.48 0.32 -0.68 l0.2 -0.4 c0.12 -0.2 0.24 -0.36 0.32 -0.56 l0.48 -0.92 c0.12 -0.16 0.2 -0.36 0.28 -0.56 l0.12 -0.28 l0.36 -0.6 l0.08 -0.16 c0.08 -0.28 0.24 -0.52 0.4 -0.72 c0.04 -0.12 0.12 -0.2 0.16 -0.28 c0.16 -0.32 0.32 -0.64 0.52 -0.92 l0.6 -1.04 l0.48 -0.72 c0 -0.08 0.04 -0.12 0.08 -0.16 c0.04 -0.08 0.16 -0.12 0.24 -0.16 c0.16 -0.04 0.28 -0.12 0.44 -0.12 l0.16 -0.04 l0.4 0 c0.2 0 0.36 0.08 0.56 0.12 c0.16 0.04 0.28 0.16 0.36 0.24 c0 0.12 0.12 0.2 0.04 0.28 c0.04 0.12 0 0.2 -0.08 0.28 l-0.08 0.2 l-0.48 0.76 c-0.04 0 0 0 0 0.04 l0.04 -0.04 c0.24 -0.2 0.48 -0.36 0.72 -0.52 c0.28 -0.16 0.56 -0.32 0.84 -0.44 c0.24 -0.12 0.6 -0.2 0.84 -0.24 c0.16 0 0.4 -0.16 0.6 -0.16 l0.16 -0.04 c0.16 0 0.24 0 0.4 0.04 c3.04 0.6 1.96 2.96 0.84 5.24 l-0.48 0.92 c-0.12 0.2 -0.2 0.44 -0.32 0.68 l-0.2 0.32 l-0.24 0.72 c-0.08 0.16 -0.12 0.32 -0.16 0.48 c0 0.08 -0.04 0.12 -0.04 0.2 c0 0.16 -0.04 0.32 -0.04 0.48 s0.08 0.32 0.08 0.44 l0.16 0.24 c0.04 0.04 0.08 0.12 0.16 0.16 s0.16 0.08 0.24 0.08 c0.12 0 0.28 0 0.4 -0.04 c0.92 -0.24 3.12 -3.08 3.92 -4.04 l1 -1.36 c0.04 -0.08 0.16 -0.16 0.2 -0.28 c0.04 -0.04 0.08 -0.04 0.08 0 c0.04 0.04 0.08 0.04 0.12 0.04 s0.08 0 0.12 0.04 z M159.24 18.56 c0.04 0.08 0.12 0.16 0.08 0.28 c0 0.08 -0.04 0.2 -0.12 0.28 l-0.08 0.16 c-0.08 0.16 -0.16 0.36 -0.28 0.48 c-0.12 0.16 -0.2 0.32 -0.28 0.48 c-0.04 0.16 -0.12 0.32 -0.2 0.48 s-0.2 0.28 -0.24 0.4 c-0.08 0.16 -0.2 0.28 -0.28 0.4 l-0.28 0.52 l-0.4 0.68 c-0.08 0.12 -0.16 0.24 -0.2 0.36 c-0.08 0.16 -0.16 0.32 -0.28 0.48 l-0.4 0.68 c-0.16 0.32 -0.32 0.64 -0.52 0.92 l-0.24 0.4 l-0.56 1.04 c-0.16 0.28 -0.32 0.56 -0.44 0.88 l-0.24 0.4 c-0.16 0.32 -0.36 0.64 -0.6 0.96 l-0.16 0.28 c-0.04 0.12 -0.32 0.6 -0.4 0.72 l-0.28 0.48 l-0.08 0.16 l-0.24 0.44 l-0.24 0.36 l-0.36 0.68 c-0.16 0.28 -0.28 0.56 -0.44 0.8 l-0.56 1 c-0.16 0.28 -0.28 0.6 -0.44 0.92 c-0.16 0.2 -0.24 0.44 -0.36 0.68 l-0.16 0.32 c-0.12 0.24 -0.2 0.48 -0.28 0.72 l-0.12 0.48 c-0.04 0.08 -0.04 0.16 -0.04 0.2 c0 0.16 -0.04 0.32 -0.04 0.52 c0 0.12 0.04 0.28 0.08 0.4 c0 0.08 0.08 0.16 0.16 0.24 l0.12 0.16 c0.08 0.04 0.16 0.08 0.24 0.08 c0.16 0 0.28 0 0.44 -0.04 c0.08 0 0.12 -0.04 0.2 -0.08 c0.2 -0.08 0.36 -0.24 0.52 -0.36 c0.16 -0.16 0.32 -0.28 0.44 -0.44 c0.28 -0.32 0.56 -0.6 0.8 -0.96 c0.08 -0.16 0.24 -0.28 0.36 -0.44 c0.08 -0.16 0.2 -0.24 0.28 -0.4 c0.04 -0.08 0.12 -0.16 0.2 -0.2 l0.48 -0.64 c0.16 -0.16 0.28 -0.36 0.4 -0.52 l0.44 -0.6 c0.16 -0.24 0.32 -0.52 0.52 -0.76 l0.24 -0.28 s0.04 -0.04 0.08 0 s0.04 0.04 0.08 0.04 c0.08 0 0.08 0 0.12 0.04 c0.04 0 0.04 0.04 0.04 0.04 c0 0.08 0.04 0.16 0 0.24 c-0.04 0.16 -0.16 0.28 -0.24 0.4 c-0.2 0.24 -0.36 0.48 -0.52 0.72 l-0.52 0.76 c-0.2 0.24 -0.36 0.48 -0.52 0.76 l-0.48 0.64 c-0.08 0.04 -0.12 0.12 -0.16 0.2 c-0.2 0.24 -0.36 0.44 -0.6 0.68 l-0.68 0.72 c-0.12 0.16 -0.24 0.32 -0.4 0.44 l-0.84 0.76 l-0.16 0.08 l-0.44 0.24 c-0.2 0.12 -0.4 0.2 -0.64 0.24 c-0.12 0 -0.2 0.04 -0.32 0.04 c-0.16 0 -0.28 -0.04 -0.36 -0.08 c-0.12 -0.04 -0.24 -0.08 -0.36 -0.08 l-0.24 -0.12 l-0.28 -0.2 c-0.24 -0.2 -0.4 -0.48 -0.56 -0.76 c-0.12 -0.28 -0.2 -0.56 -0.16 -0.88 c0.04 -0.12 0.04 -0.28 0.04 -0.4 l0 -0.12 c0 -0.08 0.04 -0.08 0 -0.16 c0 0.04 -0.04 0.08 -0.08 0.08 l-0.48 0.56 l-0.88 0.92 l-0.36 0.28 c-0.08 0.08 -0.16 0.16 -0.28 0.2 c-0.24 0.16 -0.48 0.32 -0.72 0.44 c-0.32 0.16 -0.64 0.32 -0.96 0.44 c-0.12 0.04 -0.24 0.04 -0.36 0.04 l-0.32 0 c-0.24 0 -0.44 -0.04 -0.64 -0.12 c-0.08 0 -0.12 0 -0.16 -0.04 c-0.2 -0.04 -0.36 -0.16 -0.52 -0.28 c-0.24 -0.12 -0.4 -0.32 -0.52 -0.56 c-0.08 -0.04 -0.12 -0.16 -0.16 -0.24 c-0.08 -0.2 -0.16 -0.4 -0.2 -0.6 l-0.08 -0.44 l0 -0.36 c0 -0.08 0.04 -0.16 -0.04 -0.24 c0.08 -0.12 0 -0.24 0.08 -0.36 l0 -0.08 c0 -0.2 0.04 -0.4 0.08 -0.6 l0.12 -0.6 l0.12 -0.32 c0.04 -0.24 0.16 -0.48 0.24 -0.72 l0.2 -0.4 c0.08 -0.16 0.16 -0.32 0.2 -0.48 c0.12 -0.12 0.16 -0.28 0.28 -0.4 l0 -0.04 c0.04 -0.12 0.12 -0.2 0.2 -0.32 c0.04 -0.12 0.16 -0.24 0.2 -0.36 l0.56 -0.72 l0.44 -0.52 l0.28 -0.36 c0.12 -0.12 0.24 -0.2 0.36 -0.28 c0.16 -0.2 0.36 -0.36 0.56 -0.52 l0.56 -0.4 c0.16 -0.08 0.32 -0.2 0.52 -0.28 l0.28 -0.12 c0.2 -0.12 0.4 -0.2 0.64 -0.28 c0.16 -0.08 0.36 -0.12 0.56 -0.2 l0.2 0 c0.12 -0.04 0.24 -0.04 0.36 -0.04 c0.16 -0.04 0.36 -0.04 0.56 -0.04 l0.16 0 c0.28 -0.04 0.56 0.08 0.8 0.16 c0.2 0.08 0.4 0.2 0.56 0.4 c0.12 0.12 0.2 0.28 0.24 0.44 s0.08 0.32 0.08 0.48 c0 0.12 0.04 0.24 0.04 0.36 c0 0.04 0.04 0.08 0.04 0.12 s0.04 0.04 0.04 0.04 l0.08 -0.08 c0 -0.08 0.04 -0.12 0.08 -0.2 c0.12 -0.16 0.24 -0.32 0.32 -0.52 l0.36 -0.56 c0.12 -0.2 0.24 -0.4 0.4 -0.56 c0.04 -0.12 0.12 -0.24 0.2 -0.36 l0.6 -1.16 l0.32 -0.52 l0.24 -0.36 l0.16 -0.32 l0.48 -0.76 l0.28 -0.52 c0.16 -0.28 0.28 -0.56 0.36 -0.84 l0.08 -0.16 c0.16 -0.2 0.28 -0.44 0.4 -0.68 l0.28 -0.4 l0.2 -0.32 c0.12 -0.32 0.32 -0.6 0.52 -0.88 l0.04 -0.04 l0.24 -0.44 l0.12 -0.28 l0.36 -0.72 l0.28 -0.44 c0.04 -0.08 0.08 -0.16 0.16 -0.24 l0.12 -0.16 l0.24 -0.52 c0.08 -0.16 0.2 -0.2 0.32 -0.24 c0.16 -0.08 0.28 -0.12 0.44 -0.16 l0.72 0 c0.12 0 0.28 0.04 0.4 0.08 c0.16 0.04 0.28 0.16 0.36 0.28 z M149.44 31.8 c0 -0.2 0.04 -0.36 0.04 -0.52 l0 -0.72 c0 -0.16 -0.04 -0.28 -0.08 -0.44 c-0.04 -0.2 -0.16 -0.36 -0.28 -0.52 c-0.04 -0.08 -0.12 -0.16 -0.24 -0.2 c-0.04 0 -0.08 0 -0.16 -0.04 c-0.08 0 -0.16 -0.04 -0.24 -0.04 c-0.16 -0.04 -0.32 0 -0.48 0.04 c-0.24 0.04 -0.44 0.12 -0.64 0.24 c-0.36 0.16 -0.64 0.44 -0.92 0.68 c-0.08 0.12 -0.16 0.24 -0.28 0.32 l-0.68 0.76 c-0.04 0 -0.04 0 -0.04 0.04 l-0.36 0.44 l-0.48 0.56 c-0.2 0.24 -0.4 0.56 -0.56 0.84 l-0.32 0.48 l-0.36 0.64 c-0.16 0.28 -0.28 0.56 -0.4 0.84 c-0.08 0.16 -0.16 0.32 -0.2 0.52 c-0.04 0.12 -0.08 0.24 -0.08 0.4 c-0.04 0.12 -0.08 0.24 -0.08 0.4 c0 0.12 -0.04 0.24 -0.04 0.36 l0 0.76 c0.04 0.2 0.08 0.4 0.16 0.6 c0.08 0.24 0.24 0.44 0.48 0.6 c0.12 0.08 0.28 0.16 0.44 0.2 c0.2 0 0.4 0 0.56 -0.08 l0.08 -0.04 c0.08 0 0.12 0 0.16 -0.04 c0.32 -0.2 0.6 -0.32 0.88 -0.56 c0.24 -0.2 0.48 -0.36 0.72 -0.6 c0.12 -0.12 0.24 -0.24 0.32 -0.4 c0.2 -0.2 0.32 -0.4 0.48 -0.64 c0.12 -0.12 0.2 -0.28 0.28 -0.4 l0.4 -0.56 c0.16 -0.24 0.28 -0.52 0.4 -0.76 c0.16 -0.24 0.28 -0.52 0.4 -0.8 c0.12 -0.2 0.24 -0.44 0.32 -0.68 l0.08 -0.12 l0.2 -0.36 c0.12 -0.24 0.28 -0.48 0.4 -0.76 c0.04 -0.16 0.04 -0.32 0.12 -0.44 z" fill="#111111"></path></g></svg>